<svg width="28" height="32" viewBox="0 0 512 512" fill="none" xmlns="http://www.w3.org/2000/svg">
<path d="M128 0C110.4 0 96 14.4 96 32V480C96 497.6 110.4 512 128 512H448C465.6 512 480 497.6 480 480V128L352 0H128Z" fill="#E2E5E7"/>
<path d="M384 128H480L352 0V96C352 113.6 366.4 128 384 128Z" fill="#B0B7BD"/>
<path d="M480 224L384 128H480V224Z" fill="#CAD1D8"/>
<path d="M416 416C416 424.8 408.8 432 400 432H48C39.2 432 32 424.8 32 416V256C32 247.2 39.2 240 48 240H400C408.8 240 416 247.2 416 256V416Z" fill="#50BEE8"/>
<path d="M92.5761 383.999C88.3521 383.999 83.7441 381.679 83.7441 376.063V303.407C83.7441 298.799 88.3521 295.471 92.5761 295.471H121.872C180.336 295.471 179.04 383.999 123.008 383.999H92.5761ZM100.64 311.071V368.383H121.872C156.416 368.383 157.936 311.071 121.872 311.071H100.64ZM228 385.279C204.336 386.303 179.76 370.559 179.76 339.215C179.76 307.743 204.32 292.271 228 292.271C250.384 293.407 273.792 308.895 273.792 339.215C273.792 369.551 250.384 385.279 228 385.279ZM226.592 308.911C212.256 308.911 196.656 319.023 196.656 339.231C196.656 359.327 212.272 369.567 226.592 369.567C241.312 369.567 257.04 359.327 257.04 339.231C257.04 319.007 241.312 308.911 226.592 308.911ZM288.848 339.087C288.848 314.399 304.336 293.167 333.76 293.167C344.896 293.167 353.728 296.495 363.056 304.559C366.512 307.743 366.896 313.375 363.44 316.959C359.984 320.015 354.736 319.647 351.664 316.575C346.432 311.071 341.056 309.551 333.76 309.551C314.064 309.551 304.608 323.503 304.608 339.103C304.608 354.975 313.936 369.551 333.76 369.551C341.056 369.551 347.84 366.591 353.728 361.359C357.68 358.287 363.184 359.807 365.488 362.895C367.536 365.711 368.544 370.447 364.08 374.911C355.12 383.247 344.384 384.911 333.744 384.911C302.8 384.911 288.848 363.775 288.848 339.087Z" fill="white"/>
<path d="M400 432H96V448H400C408.8 448 416 440.8 416 432V416C416 424.8 408.8 432 400 432Z" fill="#CAD1D8"/>
</svg>
