<svg width="34" height="34" viewBox="0 0 34 34" fill="none" xmlns="http://www.w3.org/2000/svg">
<g clip-path="url(#clip0_1_8515)">
<path d="M26.8519 16.4832C25.8082 13.9963 24.1368 11.8019 22.2114 10.3624C22.2526 10.2516 22.2779 10.134 22.2779 10.0083V8.04633C22.2779 7.50355 21.8484 7.06195 21.3205 7.06195H20.8192L22.7073 3.82988C22.8057 3.66035 22.8084 3.44982 22.714 3.27891C22.6223 3.10664 22.4441 3 22.2526 3H11.7485C11.5571 3 11.3802 3.10664 11.2858 3.27754C11.1914 3.44844 11.1941 3.66037 11.2925 3.82852L13.1806 7.06058H12.6793C12.1514 7.06058 11.7219 7.50218 11.7219 8.04496V10.0069C11.7219 10.1327 11.7472 10.2503 11.7884 10.361C9.8631 11.8007 8.19186 13.9951 7.14789 16.4818C5.95918 19.3147 5.68262 22.2051 6.37003 24.6208C6.92184 26.5622 8.05203 28.1003 9.72606 29.1926C11.5676 30.3916 14.0143 31 17.0005 31C19.9867 31 22.4335 30.3916 24.2736 29.1926C25.949 28.1002 27.0778 26.5621 27.6296 24.6208C28.3171 22.205 28.042 19.3147 26.8519 16.4832ZM12.6887 4.09487H21.3128L19.5789 7.06171H14.4227L12.6887 4.09487ZM12.7871 8.1556H21.2158V9.89743L12.7871 9.89879V8.1556ZM26.6086 24.3145C25.8826 26.8644 23.6275 29.9051 17.0004 29.9051C10.3733 29.9051 8.1183 26.8645 7.39225 24.3131C6.15568 19.9682 8.66472 13.7885 12.7721 10.9913H14.9048C14.5711 11.9279 14.2679 13.1146 14.018 14.4859C13.9634 14.7826 14.1536 15.0683 14.4421 15.1244C14.4754 15.1312 14.5086 15.1339 14.5405 15.1339C14.7918 15.1339 15.0152 14.9507 15.0631 14.6882C15.3396 13.1734 15.6774 11.9074 16.0457 10.9915H17.955C18.3233 11.9075 18.6611 13.1736 18.9376 14.6882C18.9855 14.9507 19.2089 15.1339 19.4602 15.1339C19.4935 15.1339 19.5254 15.1312 19.5586 15.1244C19.8471 15.0683 20.0373 14.7826 19.9828 14.4859C19.7315 13.1146 19.4296 11.9265 19.0959 10.9913H21.2286C25.3358 13.79 27.8452 19.9696 26.6086 24.3145ZM19.2303 22.1653C19.2303 23.1374 18.5149 23.9618 17.5323 24.2366V25.0433C17.5323 25.3454 17.2943 25.5902 17.0005 25.5902C16.7066 25.5902 16.4686 25.3454 16.4686 25.0433V24.3104C15.853 24.2325 15.2972 23.9495 14.9076 23.5038C14.7108 23.2782 14.7295 22.9323 14.9475 22.7313C15.1669 22.529 15.5033 22.5481 15.6988 22.7723C15.954 23.0649 16.3702 23.2399 16.8117 23.2399C17.5576 23.2399 18.1652 22.7573 18.1652 22.1639C18.1652 21.5131 17.7211 21.0934 17.0351 21.0934C15.744 21.0934 14.7707 20.1651 14.7707 18.9346C14.7707 17.9625 15.486 17.1381 16.4686 16.8633V16.2289C16.4686 15.9268 16.7067 15.682 17.0005 15.682C17.2944 15.682 17.5324 15.9268 17.5324 16.2289V16.7895C18.148 16.8674 18.7038 17.1504 19.0934 17.5961C19.2901 17.8217 19.2715 18.1676 19.0535 18.3686C18.8341 18.5709 18.4977 18.5518 18.3022 18.3276C18.0469 18.035 17.6307 17.86 17.1893 17.86C16.4434 17.86 15.8357 18.3426 15.8357 18.936C15.8357 19.5622 16.329 20.001 17.0351 20.001C18.3075 19.9997 19.2303 20.9116 19.2303 22.1653Z" fill="#8635FD"/>
</g>
<defs>
<clipPath id="clip0_1_8515">
<rect width="32.8417" height="32.8417" fill="white" transform="translate(0.526367 0.724121)"/>
</clipPath>
</defs>
</svg>
