<svg width="28" height="28" viewBox="0 0 28 28" fill="none" xmlns="http://www.w3.org/2000/svg">
<path d="M21.1462 1.86982C14.5788 -1.92936 6.0886 0.244287 2.22437 6.72804L3.26477 7.35044C6.7946 1.43326 14.5417 -0.554545 20.5518 2.91955C25.828 5.9664 28.1224 12.2736 26.0138 17.9215L27.147 18.3488C29.4692 12.1436 26.9519 5.22321 21.1462 1.86982Z" fill="#8635FD"/>
<path d="M8.43871 5.31601L3.22754 6.33778L2.20568 1.21021L1.0167 1.45169L2.28005 7.74969L8.66165 6.50499L8.43871 5.31601ZM24.7411 20.6616C21.2112 26.5787 13.4641 28.5665 7.45404 25.0925C2.17781 22.0456 -0.116536 15.7384 1.99206 10.0905L0.858818 9.66322C-1.46348 15.8591 1.05389 22.7887 6.84096 26.1328C9.03316 27.3961 11.4391 27.9999 13.8171 27.9999C18.5639 27.9999 23.199 25.5847 25.7815 21.2839L24.7411 20.6616Z" fill="#8635FD"/>
<path d="M25.7256 20.253L19.344 21.4977L19.5669 22.6866L24.7781 21.6649L25.7999 26.7925L26.9889 26.551L25.7256 20.253ZM14.0028 9.60767C12.275 9.60767 10.8723 10.7317 10.8723 12.1064C10.8723 13.4812 12.275 14.6051 14.0028 14.6051V13.3975C12.9624 13.3975 12.0799 12.803 12.0799 12.1063C12.0799 11.4096 12.9624 10.8151 14.0028 10.8151C15.0432 10.8151 15.9256 11.4096 15.9256 12.1063H17.1332C17.1332 10.7317 15.7305 9.60767 14.0028 9.60767Z" fill="#8635FD"/>
<path d="M14.0028 13.3975V14.6051C15.0432 14.6051 15.9256 15.1996 15.9256 15.8963C15.9256 16.593 15.0432 17.1875 14.0028 17.1875C12.9624 17.1875 12.0799 16.593 12.0799 15.8963H10.8723C10.8723 17.2711 12.275 18.3951 14.0028 18.3951C15.7305 18.3951 17.1332 17.271 17.1332 15.8963C17.1332 14.5215 15.7305 13.3975 14.0028 13.3975ZM13.399 8.76221H14.6066V10.2206H13.399V8.76221Z" fill="#8635FD"/>
<path d="M13.3989 17.7913H14.6065V19.2404H13.3989V17.7913Z" fill="#8635FD"/>
<path d="M14.0028 5.8269C9.49762 5.8269 5.82837 9.49607 5.82837 14.0013C5.82837 18.5066 9.49753 22.1758 14.0028 22.1758C18.5081 22.1758 22.1772 18.5066 22.1772 14.0013C22.1772 9.49607 18.508 5.8269 14.0028 5.8269ZM14.0028 20.9682C10.1571 20.9682 7.03598 17.847 7.03598 14.0013C7.03598 10.1556 10.1571 7.03451 14.0028 7.03451C17.8485 7.03451 20.9696 10.1556 20.9696 14.0013C20.9696 17.847 17.8485 20.9682 14.0028 20.9682Z" fill="#8635FD"/>
</svg>
