<svg width="28" height="32" viewBox="0 0 28 32" fill="none" xmlns="http://www.w3.org/2000/svg">
<g id="Group">
<path id="Vector" d="M6.68153 0.814453C5.62241 0.814453 4.75586 1.681 4.75586 2.74012V29.6995C4.75586 30.7586 5.62241 31.6251 6.68153 31.6251H25.9382C26.9973 31.6251 27.8639 30.7586 27.8639 29.6995V8.51712L20.1612 0.814453H6.68153Z" fill="#E2E5E7"/>
<path id="Vector_2" d="M22.0878 8.51712H27.8648L20.1621 0.814453V6.59146C20.1621 7.65057 21.0287 8.51712 22.0878 8.51712Z" fill="#B0B7BD"/>
<path id="Vector_3" d="M27.8629 14.2946L22.0859 8.51758H27.8629V14.2946Z" fill="#CAD1D8"/>
<path id="Vector_4" d="M24.0123 25.848C24.0123 26.3776 23.579 26.8108 23.0495 26.8108H1.86713C1.33757 26.8108 0.904297 26.3776 0.904297 25.848V16.2197C0.904297 15.6901 1.33757 15.2568 1.86713 15.2568H23.0495C23.579 15.2568 24.0123 15.6901 24.0123 16.2197V25.848Z" fill="#F15642"/>
<path id="Vector_5" d="M5.10156 19.0569C5.10156 18.8027 5.30183 18.5254 5.62438 18.5254H7.40273C8.40408 18.5254 9.3053 19.1955 9.3053 20.4799C9.3053 21.697 8.40408 22.3748 7.40273 22.3748H6.11735V23.3916C6.11735 23.7305 5.90168 23.9221 5.62438 23.9221C5.37019 23.9221 5.10156 23.7305 5.10156 23.3916V19.0569ZM6.11735 19.495V21.4129H7.40273C7.91881 21.4129 8.32706 20.9575 8.32706 20.4799C8.32706 19.9417 7.91881 19.495 7.40273 19.495H6.11735ZM10.8131 23.9221C10.5589 23.9221 10.2816 23.7834 10.2816 23.4455V19.0723C10.2816 18.7959 10.5589 18.5947 10.8131 18.5947H12.576C16.0942 18.5947 16.0172 23.9221 12.6454 23.9221H10.8131ZM11.2984 19.5344V22.9833H12.576C14.6548 22.9833 14.7472 19.5344 12.576 19.5344H11.2984ZM17.265 19.5961V20.8198H19.2283C19.5056 20.8198 19.7829 21.0971 19.7829 21.3657C19.7829 21.6199 19.5056 21.8279 19.2283 21.8279H17.265V23.4445C17.265 23.7141 17.0734 23.9211 16.8038 23.9211C16.4649 23.9211 16.2579 23.7141 16.2579 23.4445V19.0713C16.2579 18.795 16.4659 18.5938 16.8038 18.5938H19.5065C19.8454 18.5938 20.0457 18.795 20.0457 19.0713C20.0457 19.3178 19.8454 19.5951 19.5065 19.5951H17.265V19.5961Z" fill="white"/>
<path id="Vector_6" d="M23.0497 26.8105H4.75586V27.7733H23.0497C23.5793 27.7733 24.0125 27.34 24.0125 26.8105V25.8477C24.0125 26.3772 23.5793 26.8105 23.0497 26.8105Z" fill="#CAD1D8"/>
</g>
</svg>
