<svg width="90" height="90" viewBox="0 0 90 90" fill="none" xmlns="http://www.w3.org/2000/svg">
<circle cx="45" cy="45" r="45" fill="#FF0000"/>
<path d="M60.2248 56.395L49.5003 46.3416C49.0892 45.9636 48.8467 45.4346 48.83 44.8767C48.8107 44.3189 49.0185 43.7752 49.4044 43.3715L59.4577 32.647C60.2509 31.8009 60.208 30.4727 59.3619 29.6795C58.5158 28.8863 57.1876 28.9292 56.3944 29.7754L46.341 40.4999C45.963 40.911 45.4339 41.1534 44.8761 41.1702C44.3183 41.1895 43.7746 40.9816 43.3709 40.5958L32.6464 30.5424C31.8003 29.7492 30.4721 29.7921 29.6789 30.6383C28.8857 31.4844 28.9286 32.8126 29.7747 33.6058L40.4992 43.6592C40.9103 44.0372 41.1528 44.5662 41.1696 45.1241C41.1889 45.6819 40.981 46.2255 40.5952 46.6292L30.5418 57.3537C29.7486 58.1999 29.7915 59.5281 30.6376 60.3213C31.4838 61.1145 32.812 61.0716 33.6052 60.2254L43.6586 49.5009C44.0366 49.0898 44.5656 48.8474 45.1235 48.8306C45.6813 48.8113 46.2249 49.0191 46.6286 49.405L57.3531 59.4584C58.1993 60.2516 59.5275 60.2087 60.3207 59.3625C61.1138 58.5164 61.0709 57.1882 60.2248 56.395Z" fill="white"/>
</svg>
