<svg width="34" height="34" viewBox="0 0 34 34" fill="none" xmlns="http://www.w3.org/2000/svg">
<g clip-path="url(#clip0_1_8524)">
<path d="M14.5931 23.8308V24.6223C14.5931 24.9186 14.3539 25.1587 14.0586 25.1587C13.7633 25.1587 13.524 24.9186 13.524 24.6223V23.9035C12.9061 23.8267 12.3469 23.5496 11.9546 23.1119C11.7577 22.8911 11.7755 22.5522 11.9956 22.3547C12.2157 22.1572 12.5534 22.175 12.7502 22.3959C13.0072 22.6826 13.4256 22.8554 13.8685 22.8554C14.6191 22.8554 15.2288 22.3822 15.2288 21.8005C15.2288 21.1626 14.7818 20.7497 14.0914 20.7497C12.7953 20.7497 11.8165 19.8388 11.8165 18.6317C11.8165 17.6783 12.5356 16.8703 13.5226 16.6V15.9772C13.5226 15.6809 13.7619 15.4409 14.0572 15.4409C14.3525 15.4409 14.5917 15.6809 14.5917 15.9772V16.5273C15.2083 16.6041 15.7674 16.8812 16.1598 17.3175C16.358 17.5383 16.3403 17.8772 16.1202 18.0761C15.9 18.275 15.5623 18.2572 15.3655 18.0363C15.1071 17.7482 14.6888 17.5768 14.2458 17.5768C13.4953 17.5768 12.8856 18.05 12.8856 18.6317C12.8856 19.2462 13.3805 19.6756 14.09 19.6756C15.3696 19.6756 16.2979 20.5687 16.2979 21.7992C16.2993 22.7526 15.5802 23.5605 14.5931 23.8308ZM31 18.3464V27.2042C31 27.8888 30.4942 28.4951 29.5741 28.9135C28.7894 29.2702 27.7572 29.4663 26.6689 29.4663C25.9512 29.4663 25.2471 29.3772 24.6265 29.2139C24.446 29.7009 23.9867 30.1289 23.2881 30.4458C22.5033 30.8025 21.4712 31 20.3816 31C19.2988 31 18.2707 30.8052 17.4874 30.4513C17.3356 30.3827 17.2003 30.3086 17.0718 30.2304C16.1394 30.3827 15.1277 30.4636 14.0572 30.4636C11.0564 30.4636 8.59574 29.8669 6.74572 28.6912C5.06279 27.6199 3.92671 26.1122 3.37167 24.2081C2.68125 21.8389 2.95879 19.0035 4.15367 16.2257C5.20226 13.7866 6.88246 11.6343 8.81826 10.2212C8.77588 10.1128 8.75127 9.99621 8.75127 9.87412V7.94947C8.75127 7.41721 9.18329 6.98372 9.71373 6.98372H10.2168L8.31788 3.81349C8.21808 3.6475 8.21672 3.44173 8.31105 3.27299C8.40538 3.10426 8.5831 3 8.77586 3H19.3328C19.5255 3 19.7033 3.10426 19.7976 3.27299C19.8919 3.44172 19.8906 3.64749 19.7908 3.81349L17.8932 6.98372H18.3949C18.9254 6.98372 19.3574 7.41721 19.3574 7.94947V9.87412C19.3574 9.99621 19.3328 10.1128 19.2904 10.2198C21.3247 11.6986 23.0296 13.9374 24.0712 16.5067C24.119 16.4888 24.1696 16.4737 24.2174 16.4573C24.2776 16.4367 24.335 16.4161 24.3965 16.3969C24.443 16.3832 24.4909 16.3709 24.5387 16.3585C24.6057 16.3393 24.6727 16.3201 24.7411 16.3036C24.7848 16.2927 24.8299 16.2844 24.875 16.2748C24.9502 16.2584 25.0254 16.2405 25.102 16.2255C25.1457 16.2172 25.1922 16.2117 25.2373 16.2035C25.3166 16.1898 25.3959 16.1761 25.4779 16.1637C25.5285 16.1569 25.5791 16.1527 25.6297 16.1459C25.7076 16.1363 25.7855 16.1267 25.8648 16.1185C25.9305 16.113 25.9974 16.1089 26.0644 16.1047C26.1301 16.1006 26.1957 16.0938 26.2613 16.091C26.3953 16.0855 26.5293 16.0814 26.6646 16.0814C27.7528 16.0814 28.785 16.2776 29.5697 16.6356C30.4939 17.054 31 17.6618 31 18.3464ZM26.6689 17.1557C26.5473 17.1557 26.4283 17.1584 26.3121 17.1639C24.8097 17.2325 23.7515 17.725 23.4781 18.1434C23.4753 18.1461 23.4726 18.1502 23.4712 18.153C23.4576 18.1749 23.4494 18.1955 23.4398 18.2161C23.4343 18.227 23.4275 18.2394 23.4234 18.2504C23.4179 18.2655 23.4179 18.2805 23.4152 18.2956C23.4125 18.3135 23.407 18.3299 23.407 18.3464C23.407 18.8197 24.7085 19.5357 26.6689 19.5357C28.6294 19.5357 29.9295 18.8196 29.9295 18.3464C29.9295 18.3162 29.9241 18.286 29.9145 18.2545C29.8639 18.0981 29.6917 17.9239 29.4141 17.7607C29.3034 17.6962 29.1762 17.6317 29.0341 17.5727C28.7483 17.4534 28.4025 17.3491 28.0046 17.275C27.6082 17.201 27.1597 17.1557 26.6689 17.1557ZM17.1224 26.5238C17.1224 26.9971 18.4226 27.7131 20.383 27.7131C22.3449 27.7131 23.645 26.997 23.645 26.5238V25.8324C23.5342 25.8968 23.4167 25.96 23.2882 26.0176C22.5034 26.3742 21.4713 26.5718 20.3817 26.5718C19.2934 26.5718 18.2626 26.3756 17.4765 26.0176C17.3494 25.96 17.2318 25.8968 17.1197 25.8324V26.5101L17.1224 26.5238ZM23.6451 24.3083C23.6451 23.835 22.3436 23.119 20.3831 23.119C18.4377 23.119 17.1349 23.8295 17.1225 24.3015V24.3083C17.1225 24.783 18.4227 25.499 20.3831 25.499C22.3436 25.499 23.6451 24.7816 23.6451 24.3083ZM11.4667 6.98381H16.6496L18.3913 4.0742H9.72363L11.4667 6.98381ZM9.82205 9.76584H18.2913V8.05657H16.9515L11.1632 8.05794H9.82201L9.82205 9.76584ZM14.0576 29.3909C14.7944 29.3909 15.4958 29.3498 16.1629 29.273C16.0932 29.1083 16.0549 28.9355 16.0522 28.7585V24.3084V24.307V24.2864C16.0631 23.6074 16.5731 23.0065 17.489 22.5936C18.2724 22.2397 19.3005 22.0449 20.3832 22.0449C21.0736 22.0449 21.7422 22.1245 22.3382 22.274V18.3478V18.3464V18.345V18.3231C22.3396 18.2819 22.3478 18.2421 22.3519 18.201C22.356 18.1612 22.3573 18.1214 22.3642 18.083C22.3724 18.0432 22.3861 18.0048 22.3984 17.965C22.4107 17.9225 22.4202 17.88 22.4366 17.8388C22.4503 17.8045 22.4695 17.7716 22.4859 17.7373C22.5077 17.6934 22.5269 17.6482 22.5528 17.6043C22.572 17.5741 22.5952 17.5453 22.6157 17.5151C22.6472 17.4698 22.6773 17.4245 22.7128 17.382C22.736 17.3546 22.7648 17.3285 22.7907 17.3011C22.8317 17.2586 22.87 17.2147 22.9165 17.1735C22.9466 17.1461 22.9821 17.1214 23.0136 17.0953C23.0491 17.0665 23.0833 17.0363 23.1216 17.0089C22.1058 14.4614 20.334 12.1896 18.3065 10.84H16.1628C16.4992 11.7619 16.804 12.9265 17.0542 14.2682C17.1089 14.559 16.9175 14.8402 16.6263 14.8937C16.5935 14.9005 16.5593 14.9033 16.5279 14.9033C16.2749 14.9033 16.0507 14.7236 16.0029 14.4657C15.7267 12.9855 15.3877 11.744 15.0172 10.8401H13.0977C12.7259 11.7441 12.3868 12.9856 12.112 14.4657C12.0642 14.7236 11.84 14.9033 11.5871 14.9033C11.5543 14.9033 11.5214 14.9005 11.4886 14.8937C11.1988 14.8388 11.0074 14.559 11.0607 14.2682C11.3109 12.9265 11.6157 11.7619 11.9521 10.84H9.80979C5.68103 13.5836 3.15869 19.6456 4.40289 23.9065C5.13019 26.4086 7.3969 29.3909 14.0576 29.3909ZM23.6454 28.738V28.0479C23.5346 28.1124 23.4157 28.1755 23.2886 28.2331C22.5038 28.5898 21.4717 28.786 20.3834 28.786C19.2952 28.786 18.2644 28.5898 17.4783 28.2331C17.3511 28.1755 17.2335 28.1124 17.1215 28.0479V28.7462C17.1351 29.2181 18.438 29.9287 20.382 29.9287C22.3439 29.9273 23.6454 29.2112 23.6454 28.738ZM29.93 27.2043V26.5143C29.8193 26.5787 29.7017 26.6418 29.5746 26.6995C28.7899 27.0561 27.7577 27.2537 26.6694 27.2537C25.979 27.2537 25.3146 27.1727 24.7145 27.0232V28.1275C25.2859 28.3017 25.9654 28.395 26.6694 28.395C28.6299 28.3936 29.93 27.6775 29.93 27.2043ZM29.93 24.9888V24.2988C29.8193 24.3633 29.7017 24.4264 29.5746 24.484C28.7899 24.8407 27.7577 25.0368 26.6694 25.0368C25.9763 25.0368 25.3119 24.9586 24.7145 24.8077V25.9038C25.29 26.0808 25.9586 26.1782 26.6694 26.1782C28.6299 26.1795 29.93 25.4634 29.93 24.9888ZM29.93 22.7761V22.0861C29.8193 22.1505 29.7017 22.2136 29.5746 22.2713C28.7899 22.6279 27.7577 22.8255 26.6694 22.8255C25.5812 22.8255 24.549 22.6293 23.7629 22.2713C23.6358 22.2136 23.5182 22.1505 23.4061 22.0861V22.6609C23.9448 22.927 24.3289 23.2603 24.534 23.6376C25.1383 23.8488 25.8916 23.9654 26.6681 23.9654C28.6299 23.964 29.93 23.248 29.93 22.7761ZM29.93 20.5606V19.8706C29.8193 19.9351 29.7017 19.9982 29.5746 20.0558C28.7899 20.4125 27.7577 20.6086 26.6694 20.6086C25.5812 20.6086 24.549 20.4125 23.7643 20.0558C23.6371 19.9982 23.5196 19.9351 23.4075 19.8706V20.5606C23.4075 21.0353 24.709 21.7513 26.6694 21.7513C28.6299 21.7513 29.93 21.0339 29.93 20.5606Z" fill="#8635FD"/>
</g>
<defs>
<clipPath id="clip0_1_8524">
<rect width="32.8417" height="32.8417" fill="white" transform="translate(0.526367 0.724121)"/>
</clipPath>
</defs>
</svg>
