<svg width="27" height="26" viewBox="0 0 27 26" fill="none" xmlns="http://www.w3.org/2000/svg">
<path fill-rule="evenodd" clip-rule="evenodd" d="M26.0067 2.89011C25.9993 3.00082 26.0359 3.11 26.1085 3.19394C26.181 3.27788 26.2838 3.32983 26.3944 3.3385C26.505 3.34718 26.6146 3.31189 26.6994 3.24028C26.7842 3.16868 26.8373 3.06654 26.8472 2.95602L26.9984 1.1031H26.9983C27.0031 1.04114 26.9942 0.978877 26.9722 0.920766C26.9502 0.862655 26.9156 0.810139 26.8708 0.766983C26.8261 0.723827 26.7724 0.6911 26.7135 0.671149C26.6547 0.651198 26.5921 0.644517 26.5304 0.651586L24.6841 0.869379C24.6291 0.875649 24.5759 0.892687 24.5276 0.919521C24.4792 0.946354 24.4366 0.982456 24.4021 1.02577C24.3677 1.06907 24.3421 1.11874 24.3269 1.17193C24.3117 1.22512 24.3071 1.28079 24.3133 1.33576C24.3196 1.39073 24.3367 1.44393 24.3635 1.49232C24.3903 1.5407 24.4264 1.58333 24.4697 1.61776C24.513 1.65219 24.5627 1.67775 24.6159 1.69298C24.6691 1.70822 24.7248 1.71282 24.7797 1.70654L25.4596 1.62633L20.6429 6.63483L15.6014 4.14809C15.5252 4.10395 15.4372 4.08472 15.3496 4.0931C15.262 4.10148 15.1792 4.13704 15.1128 4.19481L11.8475 7.03883C11.9113 6.68664 11.9433 6.32944 11.9432 5.97153C11.9432 2.67885 9.26437 0 5.97164 0C2.67891 0 0 2.6788 0 5.97148C0 9.26416 2.6788 11.943 5.97148 11.943C8.31753 11.943 10.3515 10.5828 11.3274 8.60994L15.4555 5.01456L20.5464 7.52567C20.6284 7.56608 20.7212 7.57875 20.811 7.56176C20.9007 7.54477 20.9825 7.49904 21.044 7.43149L26.0619 2.21389L26.0067 2.89011ZM5.97154 11.0993C3.14408 11.0993 0.84375 8.79894 0.84375 5.97148C0.84375 3.14402 3.14408 0.843697 5.97148 0.843697C8.79894 0.843697 11.0993 3.14402 11.0993 5.97148C11.0993 8.79894 8.79899 11.0993 5.97154 11.0993ZM13.268 11.7569H10.8806C10.3572 11.7569 9.93136 12.1827 9.93136 12.7061V24.0622C9.93136 24.5856 10.3572 25.0114 10.8806 25.0114H13.268C13.7914 25.0114 14.2172 24.5856 14.2172 24.0622V12.7062C14.2172 12.1827 13.7914 11.7569 13.268 11.7569ZM13.3735 24.0623C13.3735 24.1194 13.3252 24.1677 13.268 24.1677H10.8806C10.8234 24.1677 10.7751 24.1194 10.7751 24.0623V12.7062C10.7751 12.649 10.8234 12.6007 10.8806 12.6007H13.268C13.3252 12.6007 13.3735 12.649 13.3735 12.7062V24.0623ZM19.6595 14.1044H17.272C16.7486 14.1044 16.3228 14.5303 16.3228 15.0537V24.0623C16.3228 24.5857 16.7486 25.0115 17.272 25.0115H19.6595C20.1829 25.0115 20.6087 24.5857 20.6087 24.0623V15.0537C20.6087 14.5303 20.1829 14.1044 19.6595 14.1044ZM19.7649 24.0623C19.7649 24.1194 19.7166 24.1677 19.6595 24.1677H17.272C17.2149 24.1677 17.1666 24.1194 17.1666 24.0623V15.0537C17.1666 14.9965 17.2149 14.9482 17.272 14.9482H19.6595C19.7166 14.9482 19.7649 14.9965 19.7649 15.0537V24.0623ZM26.0508 7.24175H23.6633C23.1399 7.24175 22.7141 7.66758 22.7141 8.19097V24.0622C22.7141 24.5856 23.1399 25.0114 23.6633 25.0114H26.0508C26.5742 25.0114 27 24.5856 27 24.0622V8.19097C27 7.66758 26.5742 7.24175 26.0508 7.24175ZM26.1562 24.0622C26.1562 24.1194 26.1079 24.1677 26.0508 24.1677H23.6633C23.6062 24.1677 23.5579 24.1194 23.5579 24.0622V8.19097C23.5579 8.1338 23.6062 8.0855 23.6633 8.0855H26.0508C26.1079 8.0855 26.1562 8.1338 26.1562 8.19097V24.0622ZM6.87662 17.5642H4.48922C3.96584 17.5642 3.54001 17.9901 3.54001 18.5135V24.0622C3.54001 24.5856 3.96584 25.0114 4.48922 25.0114H6.87662C7.4 25.0114 7.82583 24.5856 7.82583 24.0622V18.5135C7.82583 17.9901 7.4 17.5642 6.87662 17.5642ZM6.98208 24.0622C6.98208 24.1194 6.93378 24.1677 6.87662 24.1677H4.48922C4.43206 24.1677 4.38376 24.1194 4.38376 24.0622V18.5135C4.38376 18.4563 4.43206 18.408 4.48922 18.408H6.87662C6.93378 18.408 6.98208 18.4563 6.98208 18.5135V24.0622ZM8.14767 7.22271C8.21143 7.7404 8.02997 8.27808 7.55372 8.63942C7.22577 8.88827 6.80432 9.03493 6.39341 9.09209V9.48327C6.39341 9.59516 6.34896 9.70247 6.26985 9.78159C6.19073 9.8607 6.08342 9.90515 5.97154 9.90515C5.85965 9.90515 5.75234 9.8607 5.67322 9.78159C5.59411 9.70247 5.54966 9.59516 5.54966 9.48327V9.08429C5.20868 9.02902 4.88252 8.90836 4.60329 8.72237C4.21052 8.46075 3.90962 8.07495 3.78248 7.5648C3.75632 7.45658 3.77411 7.34242 3.83195 7.24729C3.88978 7.15216 3.98295 7.08382 4.09106 7.05723C4.19917 7.03064 4.31341 7.04797 4.40877 7.10543C4.50413 7.16288 4.57284 7.25577 4.59986 7.36377C4.67163 7.6517 4.84334 7.87071 5.06804 8.02037C5.62064 8.3884 6.51201 8.37569 7.04616 7.97038C7.51723 7.61294 7.34447 6.95377 6.88764 6.67796C6.61057 6.51069 6.24813 6.42241 5.90904 6.36678C5.49761 6.29923 5.05195 6.17688 4.69025 5.94074C3.75748 5.33181 3.72959 3.99204 4.5813 3.29954C4.84302 3.08675 5.16813 2.94068 5.51459 2.87091L5.54971 2.86411V2.45964C5.54971 2.34775 5.59416 2.24044 5.67328 2.16133C5.75239 2.08221 5.8597 2.03776 5.97159 2.03776C6.08348 2.03776 6.19078 2.08221 6.2699 2.16133C6.34902 2.24044 6.39346 2.34775 6.39346 2.45964V2.85768C6.45026 2.86748 6.50674 2.87951 6.56269 2.89364C7.16233 3.04567 7.70781 3.43992 7.99432 4.12235C8.03526 4.22506 8.03424 4.33973 7.99147 4.44169C7.94871 4.54365 7.86762 4.62475 7.76567 4.66752C7.66371 4.71029 7.54904 4.71133 7.44633 4.6704C7.34362 4.62947 7.26108 4.54985 7.21649 4.44867C7.0114 3.95982 6.50769 3.66973 5.98134 3.66947C5.4203 3.66915 4.7655 4.00623 4.79656 4.64632C4.82662 5.26542 5.54734 5.45458 6.0442 5.53616C6.47093 5.60619 6.9361 5.72273 7.3227 5.95614C7.7963 6.24211 8.08613 6.7231 8.14767 7.22271Z" fill="#8635FD"/>
</svg>
