<svg width="90" height="90" viewBox="0 0 90 90" fill="none" xmlns="http://www.w3.org/2000/svg">
<path d="M45 0C20.1866 0 0 20.1866 0 45C0 69.8134 20.1866 90 45 90C69.8134 90 90 69.8134 90 45C90 20.1866 69.8134 0 45 0ZM44.9587 70.9013C42.0836 70.9013 39.7534 68.5712 39.7534 65.6961C39.7534 62.821 42.0836 60.4908 44.9587 60.4908C47.8338 60.4908 50.1639 62.821 50.1639 65.6961C50.1639 68.5712 47.8338 70.9013 44.9587 70.9013ZM56.1403 44.758C53.1816 46.9603 50.0193 48.7495 49.4007 52.8049V55.4213H40.1164V52.3269C40.5275 46.3407 43.3475 43.6603 46.0987 41.5279C48.781 39.3974 51.119 37.8167 51.119 34.1007C51.119 29.9046 48.9197 27.9108 45.2754 27.9108C40.3249 27.9108 38.2613 31.9682 38.1905 36.8518H28.081C28.2885 27.0177 34.7528 19.8649 44.7925 19.8649C57.7908 19.8649 61.919 27.843 61.919 33.1357C61.919 39.8085 59.099 42.4908 56.1403 44.758Z" fill="#FFB818"/>
</svg>
