<svg width="28" height="32" viewBox="0 0 512 512" fill="none" xmlns="http://www.w3.org/2000/svg">
<path d="M128 0C110.4 0 96 14.4 96 32V480C96 497.6 110.4 512 128 512H448C465.6 512 480 497.6 480 480V128L352 0H128Z" fill="#E2E5E7"/>
<path d="M384 128H480L352 0V96C352 113.6 366.4 128 384 128Z" fill="#B0B7BD"/>
<path d="M480 224L384 128H480V224Z" fill="#CAD1D8"/>
<path d="M416 416C416 424.8 408.8 432 400 432H48C39.2 432 32 424.8 32 416V256C32 247.2 39.2 240 48 240H400C408.8 240 416 247.2 416 256V416Z" fill="#576D7E"/>
<path d="M132.785 311.472H110.401C99.2648 311.472 99.2648 295.104 110.401 295.104H170.913C182.305 295.104 182.305 311.472 170.913 311.472H149.665V376.064C149.665 387.184 132.769 387.456 132.769 376.064V311.472H132.785ZM224.417 326.176L246.689 298.288C253.345 289.6 266.257 300.72 258.977 309.04C251.297 318.128 243.249 327.984 235.553 338.064L261.665 370.56C268.689 380.16 254.625 389.376 247.713 379.904L224.177 349.712L201.025 380.544C194.497 389.872 180.033 379.392 187.345 370.688L213.041 338.064C204.993 327.968 197.185 318.128 189.377 309.04C181.313 299.44 196.289 289.6 202.161 298.56L224.417 326.176ZM298.289 311.472H275.921C264.785 311.472 264.785 295.104 275.921 295.104H336.417C347.809 295.104 347.809 311.472 336.417 311.472H315.185V376.064C315.185 387.184 298.289 387.456 298.289 376.064V311.472Z" fill="white"/>
<path d="M400 432H96V448H400C408.8 448 416 440.8 416 432V416C416 424.8 408.8 432 400 432Z" fill="#CAD1D8"/>
</svg>
