<svg width="28" height="32" viewBox="0 0 512 512" fill="none" xmlns="http://www.w3.org/2000/svg">
<path d="M128 0C110.4 0 96 14.4 96 32V480C96 497.6 110.4 512 128 512H448C465.6 512 480 497.6 480 480V128L352 0H128Z" fill="#E2E5E7"/>
<path d="M384 128H480L352 0V96C352 113.6 366.4 128 384 128Z" fill="#B0B7BD"/>
<path d="M480 224L384 128H480V224Z" fill="#CAD1D8"/>
<path d="M416 416C416 424.8 408.8 432 400 432H48C39.2 432 32 424.8 32 416V256C32 247.2 39.2 240 48 240H400C408.8 240 416 247.2 416 256V416Z" fill="#84BD5A"/>
<path d="M144.337 326.191L166.593 298.303C173.249 289.599 186.177 300.719 178.881 309.039C171.217 318.127 163.153 327.983 155.473 338.079L181.569 370.575C188.609 380.175 174.545 389.375 167.633 379.903L144.081 349.711L120.929 380.559C114.401 389.887 99.9368 379.407 107.233 370.703L132.945 338.079C124.881 327.967 117.073 318.127 109.281 309.039C101.233 299.439 116.193 289.599 122.081 298.575L144.337 326.191ZM197.361 303.151C197.361 298.927 200.945 295.343 205.425 295.343C209.521 295.343 212.977 298.943 212.977 303.151V367.247H247.777C260.305 367.247 260.577 383.999 247.777 383.999H205.441C200.961 383.999 197.377 380.815 197.377 376.207V303.151H197.361ZM272.033 314.671C274.977 289.839 312.449 285.375 330.113 298.943C338.817 305.967 329.601 317.103 321.921 311.471C312.449 305.471 290.961 302.655 288.273 315.935C284.817 336.927 340.465 324.911 339.569 358.943C338.673 391.439 291.601 392.191 273.937 377.615C269.697 374.159 269.841 368.543 272.145 365.071C275.473 361.759 279.169 360.607 283.537 364.191C294.017 371.343 321.025 376.719 322.929 358.543C321.281 339.631 268.065 351.007 272.033 314.671Z" fill="white"/>
<path d="M400 432H96V448H400C408.8 448 416 440.8 416 432V416C416 424.8 408.8 432 400 432Z" fill="#CAD1D8"/>
</svg>
