<svg width="28" height="32" viewBox="0 0 512 512" fill="none" xmlns="http://www.w3.org/2000/svg">
<path d="M128 0C110.4 0 96 14.4 96 32V480C96 497.6 110.4 512 128 512H448C465.6 512 480 497.6 480 480V128L352 0H128Z" fill="#E2E5E7"/>
<path d="M384 128H480L352 0V96C352 113.6 366.4 128 384 128Z" fill="#B0B7BD"/>
<path d="M480 224L384 128H480V224Z" fill="#CAD1D8"/>
<path d="M416 416C416 424.8 408.8 432 400 432H48C39.2 432 32 424.8 32 416V256C32 247.2 39.2 240 48 240H400C408.8 240 416 247.2 416 256V416Z" fill="#50BEE8"/>
<path d="M131.279 326.177L153.551 298.289C160.191 289.601 173.119 300.721 165.839 309.041C158.175 318.129 150.111 327.985 142.415 338.065L168.527 370.561C175.551 380.161 161.487 389.377 154.575 379.905L131.039 349.713L107.887 380.545C101.359 389.873 86.8952 379.393 94.2072 370.689L119.919 338.065C111.855 327.969 104.047 318.129 96.2552 309.041C88.1912 299.441 103.167 289.601 109.039 298.561L131.279 326.177ZM201.263 327.841V375.169C201.263 380.817 196.655 384.001 192.063 384.001C187.967 384.001 184.383 380.817 184.383 375.169V303.153C184.383 296.497 190.031 294.305 192.063 294.305C195.759 294.305 197.935 296.497 200.111 298.929L228.271 336.913L257.423 297.505C261.663 292.273 272.015 294.305 272.015 303.153V375.169C272.015 380.817 268.431 384.001 264.351 384.001C259.743 384.001 256.159 380.817 256.159 375.169V327.841L234.911 354.705C230.319 360.353 224.559 360.353 220.335 354.705L201.263 327.841ZM294.287 303.153C294.287 298.929 297.871 295.345 302.351 295.345C306.447 295.345 309.903 298.945 309.903 303.153V367.249H344.703C357.231 367.249 357.503 384.001 344.703 384.001H302.367C297.887 384.001 294.303 380.817 294.303 376.193V303.153H294.287Z" fill="white"/>
<path d="M400 432H96V448H400C408.8 448 416 440.8 416 432V416C416 424.8 408.8 432 400 432Z" fill="#CAD1D8"/>
</svg>
