<svg width="20" height="20" viewBox="0 0 20 20" fill="none" xmlns="http://www.w3.org/2000/svg">
<path d="M2.49985 18.3334H5.83318C5.94286 18.3341 6.05158 18.3131 6.15311 18.2716C6.25464 18.2301 6.34698 18.169 6.42485 18.0918L16.4249 8.09178C16.503 8.01431 16.565 7.92214 16.6073 7.82059C16.6496 7.71904 16.6714 7.61012 16.6714 7.50011C16.6714 7.3901 16.6496 7.28118 16.6073 7.17963C16.565 7.07808 16.503 6.98591 16.4249 6.90845L13.0915 3.57511C13.014 3.497 12.9219 3.43501 12.8203 3.3927C12.7188 3.3504 12.6099 3.32861 12.4999 3.32861C12.3898 3.32861 12.2809 3.3504 12.1794 3.3927C12.0778 3.43501 11.9857 3.497 11.9082 3.57511L1.90818 13.5751C1.83095 13.653 1.76985 13.7453 1.72838 13.8469C1.6869 13.9484 1.66588 14.0571 1.66652 14.1668V17.5001C1.66652 17.7211 1.75432 17.9331 1.9106 18.0894C2.06688 18.2457 2.27884 18.3334 2.49985 18.3334ZM3.33318 14.5084L12.4999 5.34178L14.6582 7.50011L5.49152 16.6668H3.33318V14.5084Z" fill="#212121"/>
<path d="M14.7585 1.90816C14.6808 1.83046 14.5885 1.76883 14.487 1.72678C14.3855 1.68473 14.2767 1.66309 14.1668 1.66309C13.9449 1.66309 13.7321 1.75124 13.5752 1.90816C13.4182 2.06508 13.3301 2.27791 13.3301 2.49983C13.3301 2.72175 13.4182 2.93458 13.5752 3.0915L16.9085 6.42483C16.986 6.50294 17.0781 6.56493 17.1797 6.60724C17.2812 6.64955 17.3901 6.67133 17.5002 6.67133C17.6102 6.67133 17.7191 6.64955 17.8206 6.60724C17.9222 6.56493 18.0143 6.50294 18.0918 6.42483C18.1699 6.34736 18.2319 6.25519 18.2742 6.15365C18.3165 6.0521 18.3383 5.94317 18.3383 5.83316C18.3383 5.72315 18.3165 5.61423 18.2742 5.51268C18.2319 5.41113 18.1699 5.31897 18.0918 5.2415L14.7585 1.90816Z" fill="#212121"/>
</svg>
