<svg width="20" height="20" viewBox="0 0 20 20" fill="none" xmlns="http://www.w3.org/2000/svg">
<path d="M17.5003 4.16667H2.50033C2.0281 4.16667 1.66699 3.80555 1.66699 3.33333C1.66699 2.86111 2.0281 2.5 2.50033 2.5H17.5003C17.9725 2.5 18.3337 2.86111 18.3337 3.33333C18.3337 3.80555 17.9725 4.16667 17.5003 4.16667Z" fill="#212121"/>
<path d="M12.5003 8.611H2.50033C2.0281 8.611 1.66699 8.24989 1.66699 7.77767C1.66699 7.30545 2.0281 6.94434 2.50033 6.94434H12.5003C12.9725 6.94434 13.3337 7.30545 13.3337 7.77767C13.3337 8.24989 12.9725 8.611 12.5003 8.611Z" fill="#212121"/>
<path d="M17.5003 13.0553H2.50033C2.0281 13.0553 1.66699 12.6942 1.66699 12.222C1.66699 11.7498 2.0281 11.3887 2.50033 11.3887H17.5003C17.9725 11.3887 18.3337 11.7498 18.3337 12.222C18.3337 12.6942 17.9725 13.0553 17.5003 13.0553Z" fill="#212121"/>
<path d="M12.5003 17.5002H2.50033C2.0281 17.5002 1.66699 17.1391 1.66699 16.6668C1.66699 16.1946 2.0281 15.8335 2.50033 15.8335H12.5003C12.9725 15.8335 13.3337 16.1946 13.3337 16.6668C13.3337 17.1391 12.9725 17.5002 12.5003 17.5002Z" fill="#212121"/>
</svg>
