<svg width="20" height="20" viewBox="0 0 20 20" fill="none" xmlns="http://www.w3.org/2000/svg">
<path d="M17.5 15.8332H4.16667V2.49984C4.16667 2.27882 4.07887 2.06686 3.92259 1.91058C3.76631 1.7543 3.55435 1.6665 3.33333 1.6665C3.11232 1.6665 2.90036 1.7543 2.74408 1.91058C2.5878 2.06686 2.5 2.27882 2.5 2.49984V16.6665C2.5 16.8875 2.5878 17.0995 2.74408 17.2558C2.90036 17.412 3.11232 17.4998 3.33333 17.4998H17.5C17.721 17.4998 17.933 17.412 18.0893 17.2558C18.2455 17.0995 18.3333 16.8875 18.3333 16.6665C18.3333 16.4455 18.2455 16.2335 18.0893 16.0772C17.933 15.921 17.721 15.8332 17.5 15.8332Z" fill="#212121"/>
<path d="M5.83325 9.16683V13.3335C5.83325 13.5545 5.92105 13.7665 6.07733 13.9227C6.23361 14.079 6.44557 14.1668 6.66659 14.1668C6.8876 14.1668 7.09956 14.079 7.25584 13.9227C7.41212 13.7665 7.49992 13.5545 7.49992 13.3335V9.16683C7.49992 8.94582 7.41212 8.73385 7.25584 8.57757C7.09956 8.42129 6.8876 8.3335 6.66659 8.3335C6.44557 8.3335 6.23361 8.42129 6.07733 8.57757C5.92105 8.73385 5.83325 8.94582 5.83325 9.16683Z" fill="#212121"/>
<path d="M9.16675 4.99984V13.3332C9.16675 13.5542 9.25455 13.7661 9.41083 13.9224C9.56711 14.0787 9.77907 14.1665 10.0001 14.1665C10.2211 14.1665 10.4331 14.0787 10.5893 13.9224C10.7456 13.7661 10.8334 13.5542 10.8334 13.3332V4.99984C10.8334 4.77882 10.7456 4.56686 10.5893 4.41058C10.4331 4.2543 10.2211 4.1665 10.0001 4.1665C9.77907 4.1665 9.56711 4.2543 9.41083 4.41058C9.25455 4.56686 9.16675 4.77882 9.16675 4.99984Z" fill="#212121"/>
<path d="M12.5 6.66683V13.3335C12.5 13.5545 12.5878 13.7665 12.7441 13.9227C12.9004 14.079 13.1123 14.1668 13.3333 14.1668C13.5543 14.1668 13.7663 14.079 13.9226 13.9227C14.0789 13.7665 14.1667 13.5545 14.1667 13.3335V6.66683C14.1667 6.44582 14.0789 6.23385 13.9226 6.07757C13.7663 5.92129 13.5543 5.8335 13.3333 5.8335C13.1123 5.8335 12.9004 5.92129 12.7441 6.07757C12.5878 6.23385 12.5 6.44582 12.5 6.66683Z" fill="#212121"/>
<path d="M15.8333 2.49984V13.3332C15.8333 13.5542 15.921 13.7661 16.0773 13.9224C16.2336 14.0787 16.4456 14.1665 16.6666 14.1665C16.8876 14.1665 17.0996 14.0787 17.2558 13.9224C17.4121 13.7661 17.4999 13.5542 17.4999 13.3332V2.49984C17.4999 2.27882 17.4121 2.06686 17.2558 1.91058C17.0996 1.7543 16.8876 1.6665 16.6666 1.6665C16.4456 1.6665 16.2336 1.7543 16.0773 1.91058C15.921 2.06686 15.8333 2.27882 15.8333 2.49984Z" fill="#212121"/>
</svg>
