<svg width="23" height="19" viewBox="0 0 23 19" fill="none" xmlns="http://www.w3.org/2000/svg">
<path d="M22.7111 1.89645L18.1111 0.0564504C18.0013 0.0124332 17.8787 0.0124332 17.7689 0.0564504L13.1689 1.89645C13.0836 1.93062 13.0105 1.98955 12.959 2.06563C12.9075 2.14171 12.88 2.23147 12.88 2.32333V7.07789C12.8824 7.95151 13.1097 8.80979 13.5401 9.57004C13.9705 10.3303 14.5895 10.9669 15.3373 11.4185L17.7036 12.838C17.775 12.8808 17.8567 12.9034 17.94 12.9034C18.0233 12.9034 18.105 12.8808 18.1764 12.838L20.24 11.5997V16.7517C20.2398 16.9517 20.1602 17.1434 20.0188 17.2849C19.8773 17.4263 19.6856 17.5058 19.4856 17.5061H1.6744C1.4744 17.5058 1.28265 17.4263 1.14123 17.2849C0.999803 17.1434 0.920244 16.9517 0.92 16.7517V6.46333H11.5C11.622 6.46333 11.739 6.41487 11.8253 6.3286C11.9115 6.24233 11.96 6.12533 11.96 6.00333C11.96 5.88133 11.9115 5.76433 11.8253 5.67806C11.739 5.59179 11.622 5.54333 11.5 5.54333H0.92V4.45773C0.920244 4.25773 0.999803 4.06598 1.14123 3.92456C1.28265 3.78313 1.4744 3.70357 1.6744 3.70333H11.5C11.622 3.70333 11.739 3.65487 11.8253 3.5686C11.9115 3.48233 11.96 3.36533 11.96 3.24333C11.96 3.12133 11.9115 3.00433 11.8253 2.91806C11.739 2.83179 11.622 2.78333 11.5 2.78333H1.6744C1.2304 2.78357 0.804648 2.96006 0.49069 3.27402C0.176732 3.58798 0.000243757 4.01373 0 4.45773V16.7489C0.000243757 17.1929 0.176732 17.6187 0.49069 17.9326C0.804648 18.2466 1.2304 18.4231 1.6744 18.4233H19.4856C19.9296 18.4231 20.3554 18.2466 20.6693 17.9326C20.9833 17.6187 21.1598 17.1929 21.16 16.7489V10.9713C21.733 10.4962 22.1948 9.90115 22.5127 9.2281C22.8307 8.55504 22.997 7.82041 23 7.07605V2.32333C23 2.23147 22.9725 2.14171 22.921 2.06563C22.8695 1.98955 22.7964 1.93062 22.7111 1.89645ZM22.08 7.07789C22.0781 7.79273 21.8921 8.49502 21.5398 9.11704C21.1875 9.73906 20.681 10.2598 20.0689 10.6291L17.94 11.907L15.8111 10.6291C15.199 10.2598 14.6925 9.73906 14.3402 9.11704C13.9879 8.49502 13.8019 7.79273 13.8 7.07789V2.63429L17.94 0.978291L22.08 2.63429V7.07789Z" fill="#333333"/>
<path d="M16.4257 5.75685C16.383 5.71408 16.3323 5.68014 16.2764 5.65697C16.2206 5.6338 16.1608 5.62185 16.1003 5.62181C16.0399 5.62177 15.98 5.63363 15.9242 5.65672C15.8683 5.67981 15.8175 5.71368 15.7748 5.75639C15.732 5.7991 15.6981 5.84981 15.6749 5.90563C15.6517 5.96146 15.6398 6.0213 15.6397 6.08174C15.6397 6.14218 15.6516 6.20204 15.6746 6.2579C15.6977 6.31376 15.7316 6.36452 15.7743 6.40729L17.0016 7.63365C17.0879 7.71988 17.2048 7.76833 17.3268 7.76833C17.4488 7.76833 17.5658 7.71988 17.652 7.63365L20.1057 5.18001C20.1919 5.09363 20.2403 4.97653 20.2402 4.85446C20.2402 4.73239 20.1916 4.61536 20.1052 4.52911C20.0188 4.44285 19.9017 4.39445 19.7797 4.39453C19.6576 4.39462 19.5406 4.44319 19.4543 4.52957L17.3264 6.65845L16.4257 5.75685ZM3.21999 14.7434C3.09799 14.7434 2.98099 14.7919 2.89473 14.8781C2.80846 14.9644 2.75999 15.0814 2.75999 15.2034C2.75999 15.3254 2.80846 15.4424 2.89473 15.5287C2.98099 15.6149 3.09799 15.6634 3.21999 15.6634H6.89999C7.02199 15.6634 7.139 15.6149 7.22526 15.5287C7.31153 15.4424 7.35999 15.3254 7.35999 15.2034C7.35999 15.0814 7.31153 14.9644 7.22526 14.8781C7.139 14.7919 7.02199 14.7434 6.89999 14.7434H3.21999Z" fill="#333333"/>
</svg>
