<svg width="15" height="19" viewBox="0 0 15 19" fill="none" xmlns="http://www.w3.org/2000/svg">
<path d="M7.38658 8.83866C8.57635 8.83866 9.6065 8.41141 10.4485 7.56847C11.2901 6.7257 11.717 5.6945 11.717 4.50319C11.717 3.31224 11.2903 2.28093 10.4483 1.43785C9.60636 0.595187 8.57621 0.167969 7.38658 0.167969C6.19663 0.167969 5.16659 0.595188 4.3248 1.43799C3.48302 2.28079 3.05612 3.31213 3.05612 4.50319C3.05612 5.6945 3.48298 6.72584 4.32484 7.56864C5.1669 8.4113 6.19705 8.83866 7.38654 8.83866H7.38658ZM5.06991 2.18383C5.71583 1.53713 6.47358 1.2228 7.38658 1.2228C8.29944 1.2228 9.05729 1.53713 9.70335 2.18383C10.3493 2.83063 10.6634 3.58937 10.6634 4.50316C10.6634 5.41722 10.3493 6.17586 9.70335 6.82266C9.05729 7.4695 8.29944 7.78383 7.38658 7.78383C6.47383 7.78383 5.71614 7.46936 5.06991 6.82266C4.42383 6.176 4.10972 5.41725 4.10972 4.50319C4.10972 3.58938 4.42383 2.83063 5.06991 2.18383ZM14.9637 14.0091C14.9394 13.6584 14.8903 13.2757 14.818 12.8717C14.745 12.4647 14.6511 12.0799 14.5386 11.7282C14.4222 11.3647 14.2644 11.0057 14.0689 10.6617C13.8663 10.3046 13.6282 9.99372 13.361 9.73789C13.0815 9.47024 12.7395 9.25505 12.3438 9.09804C11.9496 8.94195 11.5127 8.86285 11.0454 8.86285C10.8619 8.86285 10.6844 8.93822 10.3416 9.16168C10.0979 9.32053 9.85354 9.47827 9.60843 9.63488C9.37291 9.78514 9.05385 9.9259 8.65975 10.0533C8.27528 10.1779 7.8849 10.2411 7.49944 10.2411C7.11429 10.2411 6.72388 10.1779 6.33912 10.0533C5.94548 9.92601 5.62628 9.78528 5.39115 9.63502C5.1183 9.46047 4.87144 9.30118 4.65731 9.1615C4.3148 8.93808 4.13729 8.86267 3.95377 8.86267C3.48628 8.86267 3.04955 8.94191 2.65546 9.09822C2.26013 9.25491 1.91789 9.4701 1.6382 9.73803C1.37101 9.994 1.13289 10.3047 0.930416 10.6617C0.735245 11.0057 0.577226 11.3645 0.460889 11.7283C0.34852 12.08 0.254586 12.4647 0.181616 12.8717C0.109174 13.2752 0.0602228 13.6579 0.035923 14.0095C0.0120446 14.3532 0 14.711 0 15.0724C0 16.012 0.29834 16.7727 0.886662 17.3337C1.46772 17.8873 2.23642 18.168 3.17148 18.168H11.8285C12.7633 18.168 13.532 17.8873 14.1132 17.3337C14.7017 16.7731 15 16.0122 15 15.0723C14.9999 14.7096 14.9877 14.3519 14.9637 14.0091ZM13.3868 16.5695C13.0028 16.9353 12.4931 17.1131 11.8283 17.1131H3.17151C2.50667 17.1131 1.99694 16.9353 1.61313 16.5696C1.23662 16.2108 1.05364 15.7209 1.05364 15.0724C1.05364 14.7351 1.06473 14.4021 1.08699 14.0824C1.10863 13.7688 1.15294 13.4242 1.21868 13.0581C1.28354 12.6965 1.36609 12.3572 1.46431 12.05C1.55856 11.7554 1.68708 11.4637 1.84647 11.1827C1.99859 10.9149 2.1736 10.6852 2.36674 10.5001C2.54741 10.3269 2.77513 10.1852 3.04341 10.0789C3.29153 9.98054 3.57042 9.92671 3.87315 9.91859C3.91002 9.93828 3.97576 9.97575 4.08219 10.0452C4.29878 10.1866 4.54842 10.3478 4.82442 10.5242C5.13555 10.7228 5.53632 10.9022 6.01518 11.0569C6.50473 11.2154 7.00403 11.2959 7.49961 11.2959C7.99523 11.2959 8.49464 11.2154 8.98394 11.0571C9.46319 10.902 9.86386 10.7228 10.1754 10.5239C10.4578 10.3432 10.7005 10.1867 10.917 10.0452C11.0235 9.97586 11.0892 9.93824 11.1261 9.91862C11.429 9.92671 11.7078 9.98054 11.9561 10.0789C12.2243 10.1852 12.452 10.327 12.6326 10.5C12.8258 10.685 13.0008 10.9148 13.1529 11.1829C13.3124 11.4637 13.4411 11.7555 13.5352 12.0498C13.6336 12.3574 13.7163 12.6966 13.781 13.0579C13.8466 13.4248 13.891 13.7695 13.9127 14.0826V14.0828C13.9351 14.4013 13.9463 14.7342 13.9464 15.0724C13.9463 15.7211 13.7633 16.2108 13.3868 16.5695H13.3868Z" fill="#333333"/>
</svg>
