<svg width="226" height="194" viewBox="0 0 226 194" fill="none" xmlns="http://www.w3.org/2000/svg">
<path d="M45.7102 160.402V34.0574C45.7102 28.4727 47.9288 23.1166 51.8778 19.1676C55.8268 15.2185 61.1829 13 66.7677 13H172.055C174.289 13 176.431 13.8874 178.011 15.467C179.59 17.0466 180.478 19.1891 180.478 21.423V173.037C180.478 175.271 179.59 177.413 178.011 178.993C176.431 180.572 174.289 181.46 172.055 181.46H66.7677C61.1829 181.46 55.8268 179.241 51.8778 175.292C47.9288 171.343 45.7102 165.987 45.7102 160.402ZM45.7102 160.402C45.7102 154.817 47.9288 149.461 51.8778 145.512C55.8268 141.563 61.1829 139.345 66.7677 139.345H180.478" stroke="#333333" stroke-width="9.3722" stroke-linecap="round" stroke-linejoin="round"/>
<path d="M79.4021 97.2293V80.3833C79.4021 71.4477 82.9518 62.878 89.2702 56.5595C95.5887 50.2411 104.158 46.6914 113.094 46.6914C122.03 46.6914 130.599 50.2411 136.918 56.5595C143.236 62.878 146.786 71.4477 146.786 80.3833V97.2293" stroke="#333333" stroke-width="9.3722" stroke-linecap="round" stroke-linejoin="round"/>
<path d="M138.363 105.655C143.015 105.655 146.786 101.883 146.786 97.2316C146.786 92.5797 143.015 88.8086 138.363 88.8086C133.711 88.8086 129.94 92.5797 129.94 97.2316C129.94 101.883 133.711 105.655 138.363 105.655Z" stroke="#333333" stroke-width="9.3722" stroke-linecap="round" stroke-linejoin="round"/>
<path d="M87.8251 105.655C92.477 105.655 96.2481 101.883 96.2481 97.2316C96.2481 92.5797 92.477 88.8086 87.8251 88.8086C83.1732 88.8086 79.4021 92.5797 79.4021 97.2316C79.4021 101.883 83.1732 105.655 87.8251 105.655Z" stroke="#333333" stroke-width="9.3722" stroke-linecap="round" stroke-linejoin="round"/>
</svg>
