<svg width="21" height="19" viewBox="0 0 21 19" fill="none" xmlns="http://www.w3.org/2000/svg">
<path d="M0.480457 5.87564L10.2304 9.62564C10.3176 9.65859 10.4084 9.67543 10.5 9.67543C10.5916 9.67543 10.6824 9.65859 10.7696 9.62564L20.5195 5.87564C20.8088 5.76428 21 5.48597 21 5.17542C21 4.86487 20.8088 4.58656 20.5195 4.47522L10.7696 0.725226C10.5959 0.6593 10.4041 0.6593 10.2305 0.725226L0.480498 4.47522C0.191174 4.58658 0 4.86491 0 5.17542C0 5.48593 0.191174 5.76428 0.480457 5.87564ZM10.5 2.2289L18.1604 5.17542L10.5 8.12196L2.83961 5.1754L10.5 2.2289ZM20.5195 13.4752L18.3699 12.6483L16.2803 13.4525L18.1604 14.1754L10.5 17.122L2.83961 14.1754L4.71975 13.4525L2.63015 12.6483L0.480478 13.4753C0.191174 13.5866 0 13.8649 0 14.1755C0 14.486 0.191174 14.7643 0.480457 14.8757L10.2304 18.6257C10.3176 18.6586 10.4084 18.6754 10.5 18.6754C10.5916 18.6754 10.6824 18.6586 10.7696 18.6257L20.5195 14.8757C20.8088 14.7643 21 14.486 21 14.1755C21 13.8649 20.8088 13.5866 20.5195 13.4752V13.4752Z" fill="#333333"/>
<path d="M20.5195 8.97535L18.3699 8.14844L16.2803 8.95263L18.1604 9.67555L10.5 12.6221L2.83961 9.67555L4.71975 8.95265L2.63015 8.14848L0.480478 8.97539C0.191174 9.08669 0 9.36502 0 9.67555C0 9.98608 0.191174 10.2644 0.480457 10.3758L10.2304 14.1257C10.3176 14.1587 10.4084 14.1756 10.5 14.1756C10.5916 14.1756 10.6824 14.1587 10.7696 14.1257L20.5195 10.3758C20.8088 10.2644 21 9.9861 21 9.67555C21 9.365 20.8088 9.08669 20.5195 8.97535Z" fill="#333333"/>
</svg>
