<svg width="18" height="22" viewBox="0 0 18 22" fill="none" xmlns="http://www.w3.org/2000/svg">
<path d="M1 18.6953V3.69531C1 3.03227 1.26339 2.39639 1.73223 1.92755C2.20107 1.4587 2.83696 1.19531 3.5 1.19531H16C16.2652 1.19531 16.5196 1.30067 16.7071 1.48821C16.8946 1.67574 17 1.9301 17 2.19531V20.1953C17 20.4605 16.8946 20.7149 16.7071 20.9024C16.5196 21.09 16.2652 21.1953 16 21.1953H3.5C2.83696 21.1953 2.20107 20.9319 1.73223 20.4631C1.26339 19.9942 1 19.3584 1 18.6953ZM1 18.6953C1 18.0323 1.26339 17.3964 1.73223 16.9275C2.20107 16.4587 2.83696 16.1953 3.5 16.1953H17" stroke="#333333" stroke-linecap="round" stroke-linejoin="round"/>
<path d="M5 11.1953V9.19531C5 8.13445 5.42143 7.11703 6.17157 6.36689C6.92172 5.61674 7.93913 5.19531 9 5.19531C10.0609 5.19531 11.0783 5.61674 11.8284 6.36689C12.5786 7.11703 13 8.13445 13 9.19531V11.1953" stroke="#333333" stroke-linecap="round" stroke-linejoin="round"/>
<path d="M12 12.1953C12.5523 12.1953 13 11.7476 13 11.1953C13 10.643 12.5523 10.1953 12 10.1953C11.4477 10.1953 11 10.643 11 11.1953C11 11.7476 11.4477 12.1953 12 12.1953Z" stroke="#333333" stroke-linecap="round" stroke-linejoin="round"/>
<path d="M6 12.1953C6.55228 12.1953 7 11.7476 7 11.1953C7 10.643 6.55228 10.1953 6 10.1953C5.44772 10.1953 5 10.643 5 11.1953C5 11.7476 5.44772 12.1953 6 12.1953Z" stroke="#333333" stroke-linecap="round" stroke-linejoin="round"/>
</svg>
