<svg width="23" height="20" viewBox="0 0 23 20" fill="none" xmlns="http://www.w3.org/2000/svg">
<path d="M6.15116 8.86701H1.87209C1.37576 8.86644 0.899912 8.66902 0.548949 8.31806C0.197986 7.96709 0.000566271 7.49125 0 6.99491V2.71584C0.000566271 2.21951 0.197986 1.74366 0.548949 1.3927C0.899912 1.04174 1.37576 0.844316 1.87209 0.84375H6.15116C6.6475 0.844316 7.12334 1.04174 7.47431 1.3927C7.82527 1.74366 8.02269 2.21951 8.02326 2.71584V6.99491C8.02269 7.49125 7.82527 7.96709 7.47431 8.31806C7.12334 8.66902 6.6475 8.86644 6.15116 8.86701ZM1.87209 2.4484C1.80116 2.4484 1.73314 2.47658 1.68298 2.52673C1.63283 2.57689 1.60465 2.64491 1.60465 2.71584V6.99491C1.60465 7.06584 1.63283 7.13387 1.68298 7.18402C1.73314 7.23418 1.80116 7.26235 1.87209 7.26235H6.15116C6.22209 7.26235 6.29012 7.23418 6.34027 7.18402C6.39043 7.13387 6.4186 7.06584 6.4186 6.99491V2.71584C6.4186 2.64491 6.39043 2.57689 6.34027 2.52673C6.29012 2.47658 6.22209 2.4484 6.15116 2.4484H1.87209ZM6.15116 19.5647H1.87209C1.37576 19.5641 0.899912 19.3667 0.548949 19.0157C0.197986 18.6648 0.000566271 18.1889 0 17.6926V13.4135C0.000566271 12.9172 0.197986 12.4413 0.548949 12.0904C0.899912 11.7394 1.37576 11.542 1.87209 11.5414H6.15116C6.6475 11.542 7.12334 11.7394 7.47431 12.0904C7.82527 12.4413 8.02269 12.9172 8.02326 13.4135V17.6926C8.02269 18.1889 7.82527 18.6648 7.47431 19.0157C7.12334 19.3667 6.6475 19.5641 6.15116 19.5647ZM1.87209 13.1461C1.80116 13.1461 1.73314 13.1743 1.68298 13.2244C1.63283 13.2746 1.60465 13.3426 1.60465 13.4135V17.6926C1.60465 17.7635 1.63283 17.8315 1.68298 17.8817C1.73314 17.9319 1.80116 17.96 1.87209 17.96H6.15116C6.22209 17.96 6.29012 17.9319 6.34027 17.8817C6.39043 17.8315 6.4186 17.7635 6.4186 17.6926V13.4135C6.4186 13.3426 6.39043 13.2746 6.34027 13.2244C6.29012 13.1743 6.22209 13.1461 6.15116 13.1461H1.87209ZM22.1977 3.51817H11.5C11.2872 3.51817 11.0831 3.43364 10.9327 3.28317C10.7822 3.13271 10.6977 2.92863 10.6977 2.71584C10.6977 2.50305 10.7822 2.29898 10.9327 2.14851C11.0831 1.99805 11.2872 1.91352 11.5 1.91352H22.1977C22.4105 1.91352 22.6145 1.99805 22.765 2.14851C22.9155 2.29898 23 2.50305 23 2.71584C23 2.92863 22.9155 3.13271 22.765 3.28317C22.6145 3.43364 22.4105 3.51817 22.1977 3.51817ZM17.9186 7.79724H11.5C11.2872 7.79724 11.0831 7.71271 10.9327 7.56224C10.7822 7.41178 10.6977 7.2077 10.6977 6.99491C10.6977 6.78212 10.7822 6.57805 10.9327 6.42758C11.0831 6.27712 11.2872 6.19259 11.5 6.19259H17.9186C18.1314 6.19259 18.3355 6.27712 18.4859 6.42758C18.6364 6.57805 18.7209 6.78212 18.7209 6.99491C18.7209 7.2077 18.6364 7.41178 18.4859 7.56224C18.3355 7.71271 18.1314 7.79724 17.9186 7.79724ZM22.1977 14.2158H11.5C11.2872 14.2158 11.0831 14.1313 10.9327 13.9808C10.7822 13.8304 10.6977 13.6263 10.6977 13.4135C10.6977 13.2007 10.7822 12.9967 10.9327 12.8462C11.0831 12.6957 11.2872 12.6112 11.5 12.6112H22.1977C22.4105 12.6112 22.6145 12.6957 22.765 12.8462C22.9155 12.9967 23 13.2007 23 13.4135C23 13.6263 22.9155 13.8304 22.765 13.9808C22.6145 14.1313 22.4105 14.2158 22.1977 14.2158ZM17.9186 18.4949H11.5C11.2872 18.4949 11.0831 18.4104 10.9327 18.2599C10.7822 18.1095 10.6977 17.9054 10.6977 17.6926C10.6977 17.4798 10.7822 17.2757 10.9327 17.1253C11.0831 16.9748 11.2872 16.8903 11.5 16.8903H17.9186C18.1314 16.8903 18.3355 16.9748 18.4859 17.1253C18.6364 17.2757 18.7209 17.4798 18.7209 17.6926C18.7209 17.9054 18.6364 18.1095 18.4859 18.2599C18.3355 18.4104 18.1314 18.4949 17.9186 18.4949Z" fill="#333333"/>
</svg>
