<svg width="24" height="20" viewBox="0 0 24 20" fill="none" xmlns="http://www.w3.org/2000/svg">
<path d="M1.84619 15.75V10.3346C1.84778 9.46865 2.19145 8.63838 2.80235 8.02461L6.07696 4.75V9.82692" stroke="#333333" stroke-linecap="round" stroke-linejoin="round"/>
<path d="M6.92302 15.7507L9.90148 11.283C10.0248 11.0985 10.0968 10.8845 10.1101 10.6629C10.1235 10.4414 10.0778 10.2203 9.97763 10.0222C9.83975 9.73737 9.59846 9.51578 9.3029 9.40258C9.00735 9.28939 8.67977 9.29312 8.38687 9.41301L5.23071 10.6738" stroke="#333333" stroke-linecap="round" stroke-linejoin="round"/>
<path d="M8.05692 15.75H1.55846C1.25003 15.75 1 16 1 16.3085V18.5762C1 18.8846 1.25003 19.1346 1.55846 19.1346H8.05692C8.36535 19.1346 8.61538 18.8846 8.61538 18.5762V16.3085C8.61538 16 8.36535 15.75 8.05692 15.75Z" stroke="#333333" stroke-linecap="round" stroke-linejoin="round"/>
<path d="M6.0769 9.82722V1.65338C6.0769 1.35266 6.19636 1.06426 6.409 0.851627C6.62164 0.63899 6.91004 0.519531 7.21075 0.519531H21.8661C22.1668 0.519531 22.4552 0.63899 22.6679 0.851627C22.8805 1.06426 23 1.35266 23 1.65338V11.2318C23 11.5326 22.8805 11.8209 22.6679 12.0336C22.4552 12.2462 22.1668 12.3657 21.8661 12.3657H9.46152M6.92306 3.90415H22.1538M17.9231 9.82722H19.6154" stroke="#333333" stroke-linecap="round" stroke-linejoin="round"/>
</svg>
