<svg width="18" height="18" viewBox="0 0 18 18" fill="none" xmlns="http://www.w3.org/2000/svg">
<path fill-rule="evenodd" clip-rule="evenodd" d="M8.16146 11.722C8.16146 11.2222 7.96307 10.7432 7.60962 10.3904C7.43485 10.2154 7.22728 10.0765 6.99879 9.98185C6.7703 9.88716 6.52538 9.83846 6.27804 9.83855H1.88341C1.38368 9.83855 0.904666 10.0369 0.55184 10.3904C0.376825 10.5652 0.237999 10.7727 0.143306 11.0012C0.0486141 11.2297 -8.38534e-05 11.4746 1.08386e-07 11.722V16.1166C1.08386e-07 16.6163 0.198386 17.0953 0.55184 17.4482C0.726608 17.6232 0.934178 17.762 1.16267 17.8567C1.39116 17.9514 1.63608 18.0001 1.88341 18H6.27804C6.77777 18 7.25679 17.8016 7.60962 17.4482C7.78463 17.2734 7.92346 17.0658 8.01815 16.8373C8.11284 16.6088 8.16154 16.3639 8.16146 16.1166V11.722ZM17.5785 11.722C17.5785 11.2222 17.3801 10.7432 17.0267 10.3904C16.8519 10.2154 16.6443 10.0765 16.4158 9.98185C16.1874 9.88716 15.9424 9.83846 15.6951 9.83855H11.3005C10.8007 9.83855 10.3217 10.0369 9.9689 10.3904C9.79389 10.5652 9.65506 10.7727 9.56037 11.0012C9.46568 11.2297 9.41698 11.4746 9.41706 11.722V16.1166C9.41706 16.6163 9.61545 17.0953 9.9689 17.4482C10.1437 17.6232 10.3512 17.762 10.5797 17.8567C10.8082 17.9514 11.0531 18.0001 11.3005 18H15.6951C16.1948 18 16.6739 17.8016 17.0267 17.4482C17.2017 17.2734 17.3405 17.0658 17.4352 16.8373C17.5299 16.6088 17.5786 16.3639 17.5785 16.1166V11.722ZM6.90585 11.722V16.1166C6.9061 16.1991 6.89003 16.2809 6.85856 16.3571C6.8271 16.4334 6.78087 16.5027 6.72252 16.5611C6.66417 16.6194 6.59487 16.6656 6.51859 16.6971C6.44231 16.7286 6.36056 16.7446 6.27804 16.7444H1.88341C1.8009 16.7446 1.71915 16.7286 1.64287 16.6971C1.56659 16.6656 1.49728 16.6194 1.43893 16.5611C1.38059 16.5027 1.33435 16.4334 1.30289 16.3571C1.27143 16.2809 1.25536 16.1991 1.25561 16.1166V11.722C1.25536 11.6394 1.27143 11.5577 1.30289 11.4814C1.33435 11.4051 1.38059 11.3358 1.43893 11.2775C1.49728 11.2191 1.56659 11.1729 1.64287 11.1414C1.71915 11.11 1.8009 11.0939 1.88341 11.0942H6.27804C6.36056 11.0939 6.44231 11.11 6.51859 11.1414C6.59487 11.1729 6.66417 11.2191 6.72252 11.2775C6.78087 11.3358 6.8271 11.4051 6.85856 11.4814C6.89003 11.5577 6.9061 11.6394 6.90585 11.722ZM16.3229 11.722V16.1166C16.3232 16.1991 16.3071 16.2809 16.2756 16.3571C16.2442 16.4334 16.1979 16.5027 16.1396 16.5611C16.0812 16.6194 16.0119 16.6656 15.9356 16.6971C15.8594 16.7286 15.7776 16.7446 15.6951 16.7444H11.3005C11.218 16.7446 11.1362 16.7286 11.0599 16.6971C10.9837 16.6656 10.9143 16.6194 10.856 16.5611C10.7976 16.5027 10.7514 16.4334 10.72 16.3571C10.6885 16.2809 10.6724 16.1991 10.6727 16.1166V11.722C10.6724 11.6394 10.6885 11.5577 10.72 11.4814C10.7514 11.4051 10.7976 11.3358 10.856 11.2775C10.9143 11.2191 10.9837 11.1729 11.0599 11.1414C11.1362 11.11 11.218 11.0939 11.3005 11.0942H15.6951C15.7776 11.0939 15.8594 11.11 15.9356 11.1414C16.0119 11.1729 16.0812 11.2191 16.1396 11.2775C16.1979 11.3358 16.2442 11.4051 16.2756 11.4814C16.3071 11.5577 16.3232 11.6394 16.3229 11.722ZM14.8294 8.45298L17.4486 5.83378C17.8016 5.48059 18 5.00162 18 4.50221C18 4.0028 17.8016 3.52383 17.4486 3.17064L14.8294 0.551438C14.4762 0.198352 13.9972 0 13.4978 0C12.9984 0 12.5194 0.198352 12.1662 0.551438L9.54702 3.17064C9.19393 3.52383 8.99558 4.0028 8.99558 4.50221C8.99558 5.00162 9.19393 5.48059 9.54702 5.83378L12.1662 8.45298C12.5194 8.80607 12.9984 9.00442 13.4978 9.00442C13.9972 9.00442 14.4762 8.80607 14.8294 8.45298ZM8.16146 2.30489C8.16146 1.80516 7.96307 1.32615 7.60962 0.973322C7.43485 0.798308 7.22728 0.659481 6.99879 0.564788C6.7703 0.470096 6.52538 0.421398 6.27804 0.421482H1.88341C1.38368 0.421482 0.904666 0.619868 0.55184 0.973322C0.376825 1.14809 0.237999 1.35566 0.143306 1.58415C0.0486141 1.81264 -8.38534e-05 2.05756 1.08386e-07 2.30489V6.69952C1.08386e-07 7.19926 0.198386 7.67827 0.55184 8.0311C0.726608 8.20611 0.934178 8.34494 1.16267 8.43963C1.39116 8.53432 1.63608 8.58302 1.88341 8.58294H6.27804C6.77777 8.58294 7.25679 8.38455 7.60962 8.0311C7.78463 7.85633 7.92346 7.64876 8.01815 7.42027C8.11284 7.19178 8.16154 6.94686 8.16146 6.69952V2.30489ZM16.5608 4.94607L13.9416 7.56527C13.8239 7.68296 13.6643 7.74908 13.4978 7.74908C13.3313 7.74908 13.1717 7.68296 13.0539 7.56527L10.4347 4.94607C10.317 4.82834 10.2509 4.66868 10.2509 4.50221C10.2509 4.33574 10.317 4.17608 10.4347 4.05835L13.0539 1.43915C13.1717 1.32146 13.3313 1.25534 13.4978 1.25534C13.6643 1.25534 13.8239 1.32146 13.9416 1.43915L16.5608 4.05835C16.6785 4.17608 16.7447 4.33574 16.7447 4.50221C16.7447 4.66868 16.6785 4.82834 16.5608 4.94607ZM6.90585 2.30489V6.69952C6.9061 6.78204 6.89003 6.86379 6.85856 6.94007C6.8271 7.01635 6.78087 7.08566 6.72252 7.144C6.66417 7.20235 6.59487 7.24858 6.51859 7.28005C6.44231 7.31151 6.36056 7.32758 6.27804 7.32733H1.88341C1.8009 7.32758 1.71915 7.31151 1.64287 7.28005C1.56659 7.24858 1.49728 7.20235 1.43893 7.144C1.38059 7.08566 1.33435 7.01635 1.30289 6.94007C1.27143 6.86379 1.25536 6.78204 1.25561 6.69952V2.30489C1.25536 2.22238 1.27143 2.14063 1.30289 2.06435C1.33435 1.98807 1.38059 1.91876 1.43893 1.86042C1.49728 1.80207 1.56659 1.75584 1.64287 1.72437C1.71915 1.69291 1.8009 1.67684 1.88341 1.67709H6.27804C6.36056 1.67684 6.44231 1.69291 6.51859 1.72437C6.59487 1.75584 6.66417 1.80207 6.72252 1.86042C6.78087 1.91876 6.8271 1.98807 6.85856 2.06435C6.89003 2.14063 6.9061 2.22238 6.90585 2.30489Z" fill="#333333"/>
</svg>
