<svg width="19" height="19" viewBox="0 0 19 19" fill="none" xmlns="http://www.w3.org/2000/svg">
<path fill-rule="evenodd" clip-rule="evenodd" d="M11.5316 15.4065C11.4604 15.3877 11.3974 15.3458 11.3525 15.2874C11.3076 15.229 11.2832 15.1574 11.2832 15.0837C11.2832 15.0101 11.3076 14.9385 11.3525 14.8801C11.3974 14.8217 11.4604 14.7798 11.5316 14.7609C11.7294 14.7609 11.9191 14.6824 12.059 14.5425C12.1988 14.4027 12.2774 14.213 12.2774 14.0152C12.2774 13.8174 12.1988 13.6277 12.059 13.4878C11.9191 13.348 11.7294 13.2694 11.5316 13.2694H8.82681C8.77293 13.271 8.71946 13.2596 8.67097 13.236L6.31122 12.0116H3.77337C3.6848 12.0116 3.59987 11.9764 3.53724 11.9138C3.47462 11.8512 3.43944 11.7662 3.43944 11.6777C3.43944 11.5891 3.47462 11.5042 3.53724 11.4416C3.59987 11.3789 3.6848 11.3438 3.77337 11.3438H6.38913C6.44014 11.3473 6.48965 11.3626 6.53384 11.3883L8.90472 12.6127H11.5316C11.8806 12.6439 12.2052 12.8045 12.4417 13.0631C12.6782 13.3216 12.8093 13.6592 12.8093 14.0096C12.8093 14.36 12.6782 14.6976 12.4417 14.9562C12.2052 15.2147 11.8806 15.3754 11.5316 15.4065Z" fill="#333333"/>
<path fill-rule="evenodd" clip-rule="evenodd" d="M10.6189 18.5124H9.08284C9.04474 18.5114 9.00709 18.5038 8.97153 18.4901L4.89761 16.9207H3.80678C3.7586 16.9296 3.70905 16.9278 3.66165 16.9154C3.61425 16.903 3.57015 16.8803 3.53249 16.849C3.49482 16.8177 3.46452 16.7784 3.44372 16.7341C3.42292 16.6897 3.41214 16.6413 3.41214 16.5923C3.41214 16.5433 3.42292 16.4949 3.44372 16.4506C3.46452 16.4062 3.49482 16.367 3.53249 16.3356C3.57015 16.3043 3.61425 16.2816 3.66165 16.2692C3.70905 16.2568 3.7586 16.255 3.80678 16.2639H4.95326C4.99137 16.265 5.02901 16.2725 5.06457 16.2862L9.14962 17.8557H10.5521C10.8638 17.7221 11.4983 17.4883 12.2997 17.1989C14.1919 16.52 17.0415 15.4848 18.0321 14.7947C18.17 14.6978 18.2685 14.5544 18.3093 14.3909C18.3502 14.2274 18.3308 14.0546 18.2547 13.9042C18.0766 13.5703 17.5312 13.3699 16.5628 13.8151L16.5294 13.8263L12.1438 15.3846C12.1083 15.3983 12.0706 15.4059 12.0325 15.4069H7.85844C7.809 15.42 7.75722 15.4215 7.70709 15.4114C7.65695 15.4014 7.6098 15.3799 7.56927 15.3487C7.52875 15.3175 7.49593 15.2774 7.47334 15.2315C7.45076 15.1857 7.43901 15.1352 7.43901 15.0841C7.43901 15.0329 7.45076 14.9825 7.47334 14.9366C7.49593 14.8907 7.52875 14.8506 7.56927 14.8194C7.6098 14.7882 7.65695 14.7668 7.70709 14.7567C7.75722 14.7466 7.809 14.7482 7.85844 14.7613H11.9769L16.3068 13.2252C17.6648 12.6019 18.4996 13.0026 18.8335 13.5703C18.996 13.866 19.0416 14.212 18.9612 14.5397C18.8808 14.8675 18.6803 15.1531 18.3994 15.3401C17.342 16.0636 14.5481 17.0765 12.5223 17.8111C11.7097 18.1117 11.0085 18.3677 10.7525 18.479C10.7108 18.4993 10.6653 18.5107 10.6189 18.5124Z" fill="#333333"/>
<path fill-rule="evenodd" clip-rule="evenodd" d="M3.78451 18.0337H0.333928C0.245365 18.0337 0.160429 17.9985 0.0978052 17.9359C0.0351816 17.8733 0 17.7883 0 17.6998L0 10.576C0.00830608 10.4933 0.0471221 10.4167 0.108868 10.3612C0.170615 10.3056 0.250858 10.275 0.333928 10.2754H3.78451C3.86728 10.2809 3.94503 10.317 4.00264 10.3767C4.06025 10.4364 4.0936 10.5153 4.09618 10.5982V17.722C4.0934 17.8068 4.0585 17.8873 3.99856 17.9472C3.93861 18.0071 3.85811 18.042 3.77338 18.0448L3.78451 18.0337ZM0.656725 17.377H3.43946V10.921H0.667856L0.656725 17.377ZM11.2422 10.3088C9.89903 10.3088 8.61083 9.77524 7.66104 8.82545C6.71125 7.87566 6.17766 6.58747 6.17766 5.24426C6.17766 3.90105 6.71125 2.61286 7.66104 1.66307C8.61083 0.713275 9.89903 0.179688 11.2422 0.179688C12.5854 0.179688 13.8736 0.713275 14.8234 1.66307C15.7732 2.61286 16.3068 3.90105 16.3068 5.24426C16.3068 6.58747 15.7732 7.87566 14.8234 8.82545C13.8736 9.77524 12.5854 10.3088 11.2422 10.3088ZM11.2422 0.847543C10.6634 0.847543 10.0902 0.961555 9.55543 1.18307C9.02064 1.40459 8.53472 1.72926 8.12542 2.13857C7.71611 2.54788 7.39143 3.0338 7.16992 3.56858C6.9484 4.10336 6.83439 4.67654 6.83439 5.25539C6.83439 5.83424 6.9484 6.40741 7.16992 6.9422C7.39143 7.47698 7.71611 7.9629 8.12542 8.37221C8.53472 8.78152 9.02064 9.10619 9.55543 9.32771C10.0902 9.54922 10.6634 9.66324 11.2422 9.66324C12.4113 9.66324 13.5324 9.19884 14.3591 8.37221C15.1857 7.54558 15.6501 6.42442 15.6501 5.25539C15.6501 4.08636 15.1857 2.9652 14.3591 2.13857C13.5324 1.31194 12.4113 0.847543 11.2422 0.847543Z" fill="#333333"/>
<path fill-rule="evenodd" clip-rule="evenodd" d="M8.90476 7.92554C8.84064 7.92477 8.7781 7.90556 8.72461 7.8702C8.67111 7.83483 8.62893 7.78482 8.60311 7.72612C8.57728 7.66743 8.5689 7.60254 8.57897 7.53921C8.58904 7.47588 8.61713 7.41679 8.65988 7.36899L13.3571 2.68287C13.4208 2.6404 13.4971 2.62107 13.5733 2.62814C13.6495 2.6352 13.721 2.66823 13.7757 2.72169C13.8305 2.77515 13.8652 2.8458 13.8741 2.92181C13.883 2.99782 13.8656 3.07458 13.8246 3.13924L9.12738 7.82536C9.06848 7.88565 8.98895 7.92144 8.90476 7.92554ZM9.73958 4.89793C9.51313 4.89962 9.29134 4.83356 9.10272 4.70823C8.91411 4.58289 8.76728 4.40402 8.68112 4.19459C8.59495 3.98516 8.57339 3.75475 8.61919 3.53297C8.66499 3.31119 8.77607 3.10817 8.93816 2.95002C9.04373 2.84333 9.16942 2.75864 9.30793 2.70084C9.44645 2.64304 9.59506 2.61328 9.74515 2.61328C9.89524 2.61328 10.0438 2.64304 10.1824 2.70084C10.3209 2.75864 10.4466 2.84333 10.5521 2.95002C10.7094 3.11093 10.8159 3.31457 10.8583 3.53558C10.9007 3.75658 10.8771 3.98517 10.7904 4.19285C10.7038 4.40053 10.558 4.57813 10.3711 4.70351C10.1842 4.82889 9.96461 4.8965 9.73958 4.89793ZM9.73958 3.26168C9.60969 3.26168 9.48512 3.31328 9.39327 3.40513C9.30142 3.49698 9.24982 3.62155 9.24982 3.75144C9.24982 3.88134 9.30142 4.00591 9.39327 4.09776C9.48512 4.1896 9.60969 4.2412 9.73958 4.2412C9.86948 4.2412 9.99405 4.1896 10.0859 4.09776C10.1777 4.00591 10.2293 3.88134 10.2293 3.75144C10.2293 3.62155 10.1777 3.49698 10.0859 3.40513C9.99405 3.31328 9.86948 3.26168 9.73958 3.26168ZM12.7338 7.89215C12.5064 7.89611 12.283 7.83168 12.0927 7.70721C11.9023 7.58274 11.7537 7.40397 11.6662 7.19406C11.5786 6.98416 11.5561 6.75279 11.6016 6.52994C11.6471 6.3071 11.7584 6.10305 11.9212 5.94423C12.027 5.83586 12.1534 5.74973 12.2929 5.69093C12.4325 5.63213 12.5824 5.60184 12.7338 5.60184C12.8852 5.60184 13.0351 5.63213 13.1747 5.69093C13.3142 5.74973 13.4406 5.83586 13.5464 5.94423C13.7037 6.10515 13.8101 6.30879 13.8525 6.5298C13.8949 6.7508 13.8713 6.97939 13.7847 7.18707C13.698 7.39475 13.5522 7.57235 13.3653 7.69773C13.1785 7.82311 12.9588 7.89072 12.7338 7.89215ZM12.7338 6.2559C12.6685 6.25588 12.6039 6.26891 12.5438 6.29422C12.4836 6.31952 12.4291 6.3566 12.3835 6.40326C12.3379 6.44992 12.302 6.50524 12.2781 6.56595C12.2541 6.62666 12.2426 6.69155 12.244 6.75679C12.244 6.89036 12.2886 7.0128 12.3887 7.10185C12.4456 7.15913 12.5158 7.20147 12.593 7.2251C12.6701 7.24873 12.752 7.25291 12.8312 7.23727C12.9104 7.22164 12.9845 7.18667 13.0469 7.13548C13.1093 7.08429 13.1581 7.01847 13.1889 6.94387C13.2198 6.86927 13.2317 6.7882 13.2236 6.70788C13.2156 6.62757 13.1878 6.55049 13.1427 6.4835C13.0977 6.41651 13.0368 6.3617 12.9654 6.32393C12.8941 6.28617 12.8145 6.25549 12.7338 6.2559Z" fill="#333333"/>
</svg>
