<svg width="18" height="19" viewBox="0 0 18 19" fill="none" xmlns="http://www.w3.org/2000/svg">
<path d="M6.66157 7.28516C5.50539 7.28516 4.48953 8.06457 4.19125 9.18035C4.11839 9.45231 4.15584 9.73639 4.29676 9.98032C4.76711 10.7932 5.9911 10.6259 6.22947 9.71925C6.38132 9.22363 7.10013 9.32229 7.11078 9.84232C7.07501 10.4984 5.59796 10.7028 5.60763 12.5551C5.60759 13.1362 6.08041 13.6091 6.66157 13.6091C7.24277 13.6091 7.71558 13.1362 7.71558 12.5551C7.71558 12.3335 7.85604 12.2012 8.10429 11.9863C10.0762 10.6118 9.31847 7.366 6.66157 7.28516ZM7.64444 11.455C7.3631 11.6985 7.01293 12.0016 7.01293 12.555C7.01293 12.7488 6.85533 12.9064 6.66157 12.9064C6.46785 12.9064 6.31024 12.7488 6.31024 12.555C6.31024 11.6862 6.6974 11.3511 7.18758 10.9268C7.46642 10.6854 7.81339 10.385 7.81339 9.84225C7.81339 9.20712 7.2967 8.69043 6.66157 8.69043C6.14343 8.69029 5.68481 9.04087 5.54983 9.54074C5.41682 9.98808 4.76458 9.81797 4.86998 9.36195C5.08626 8.55285 5.82299 7.98774 6.66153 7.98774C7.68407 7.98774 8.51601 8.81964 8.51601 9.84221C8.51605 10.7005 8.13141 11.0334 7.64444 11.455ZM6.6616 13.9604C6.08044 13.9604 5.60763 14.4332 5.60763 15.0143C5.66061 16.4107 7.66281 16.4103 7.71558 15.0143C7.71558 14.4332 7.24277 13.9604 6.6616 13.9604ZM6.6616 15.3657C6.46788 15.3657 6.31028 15.2081 6.31028 15.0143C6.32795 14.5489 6.99533 14.549 7.01293 15.0143C7.01293 15.2081 6.85533 15.3657 6.6616 15.3657Z" fill="#333333"/>
<path d="M17.3548 7.71795C19.2363 4.51522 16.8001 0.316803 13.081 0.36367C10.4078 0.363635 8.22588 2.50729 8.16387 5.16588C2.5201 3.87145 -2.00709 10.0353 0.914325 15.03C0.74495 15.6612 0.575576 16.2926 0.406166 16.9248C0.327223 17.221 0.410417 17.5263 0.628731 17.7415C0.844059 17.9537 1.15727 18.0351 1.44686 17.9545C2.0756 17.786 2.70419 17.6174 3.33292 17.4487C8.32998 20.3712 14.4916 15.8414 13.1974 10.1994C14.0142 10.1802 14.8108 9.95909 15.5171 9.55581C15.9579 9.6741 16.3988 9.79235 16.8397 9.9105C17.0823 9.97785 17.3446 9.9097 17.5249 9.73203C17.7078 9.55173 17.7776 9.29586 17.7113 9.04712C17.5925 8.60378 17.4737 8.16087 17.3548 7.71795ZM6.6869 17.6489C5.58331 17.6489 4.5052 17.3454 3.56916 16.7713C3.51388 16.7374 3.4503 16.7195 3.38545 16.7195C2.67176 16.8765 1.96862 17.0983 1.25876 17.2775C1.14616 17.305 1.05939 17.2088 1.08503 17.1062C1.26716 16.4265 1.44932 15.7475 1.63152 15.0685C1.6439 15.0224 1.64675 14.9742 1.6399 14.927C1.63305 14.8798 1.61664 14.8344 1.59168 14.7937C-0.857133 10.9116 2.09032 5.64414 6.687 5.70386C14.5985 6.00411 14.5983 17.3491 6.6869 17.6489ZM16.6379 7.75733C16.7695 8.24775 16.901 8.73813 17.0334 9.22935C17.0327 9.2309 17.0298 9.23346 17.0279 9.2335C16.5375 9.10196 16.0469 8.97046 15.5565 8.83882C15.5104 8.82646 15.4622 8.82362 15.415 8.83047C15.3678 8.83731 15.3224 8.85371 15.2817 8.87866C14.5977 9.29849 13.8032 9.51354 12.9969 9.4972C12.3283 7.56642 10.7968 6.03499 8.86607 5.36631C8.97456 -0.275849 17.0769 -0.354687 17.297 5.2822C17.297 6.06113 17.0829 6.822 16.6778 7.48256C16.6528 7.52324 16.6364 7.56859 16.6295 7.61584C16.6227 7.66308 16.6255 7.71123 16.6379 7.75733Z" fill="#333333"/>
<path d="M11.3246 4.92969C11.1305 4.92955 10.9731 5.08691 10.9731 5.28101C10.9904 5.74642 11.6588 5.74652 11.6759 5.28101C11.6759 5.08698 11.5186 4.92969 11.3246 4.92969ZM13.0812 4.92969C12.8871 4.92951 12.7298 5.08687 12.7298 5.28101C12.747 5.74642 13.4154 5.74652 13.4326 5.28101C13.4326 5.08698 13.2752 4.92969 13.0812 4.92969ZM14.8379 4.92969C14.6438 4.92951 14.4864 5.08687 14.4864 5.28101C14.5037 5.74642 15.172 5.74652 15.1892 5.28101C15.1892 5.08698 15.0319 4.92969 14.8379 4.92969Z" fill="#333333"/>
</svg>
