<svg width="19" height="20" viewBox="0 0 19 20" fill="none" xmlns="http://www.w3.org/2000/svg">
<path d="M9.49998 13.1817C9.06017 13.1817 8.76697 12.8885 8.76697 12.4487C8.84027 11.4958 9.35338 10.6895 10.0864 10.1031C10.5262 9.66325 10.966 9.22344 10.966 8.78363C10.966 7.97731 10.3063 7.3176 9.49998 7.3176C8.69367 7.3176 8.03395 7.97731 8.03395 8.78363C8.03395 9.22344 7.74074 9.51665 7.30093 9.51665C6.86112 9.51665 6.56792 9.22344 6.56792 8.78363C6.56792 7.17099 7.88735 5.85156 9.49998 5.85156C11.1126 5.85156 12.4321 7.17099 12.4321 8.78363C12.3588 9.73655 11.8456 10.5429 11.1126 11.1293C10.6728 11.5691 10.233 12.0089 10.233 12.4487C10.233 12.8885 9.93979 13.1817 9.49998 13.1817Z" fill="#333333"/>
<path d="M9.5 15.3801C9.90483 15.3801 10.233 15.0519 10.233 14.6471C10.233 14.2422 9.90483 13.9141 9.5 13.9141C9.09517 13.9141 8.76698 14.2422 8.76698 14.6471C8.76698 15.0519 9.09517 15.3801 9.5 15.3801Z" fill="#333333"/>
<path d="M0.997004 19.6322C0.777099 19.4856 0.703797 19.1924 0.703797 18.8992L1.36351 15.1608C-1.34865 10.6894 0.117384 4.82528 4.58879 2.18642C9.06019 -0.452445 14.9243 0.940287 17.6365 5.41169C20.3486 9.88309 18.8826 15.7472 14.4112 18.4594C11.4791 20.2186 7.74076 20.2919 4.80869 18.5327L1.80332 19.7788C1.43681 19.8521 1.21691 19.7788 0.997004 19.6322ZM4.80869 16.9934C4.9553 16.9934 5.1019 17.0667 5.1752 17.14C8.98689 19.5589 13.9714 18.3861 16.3171 14.6477C18.6627 10.9093 17.5632 5.8515 13.8248 3.50585C10.0864 1.16019 5.1019 2.11311 2.68294 5.9248C0.997004 8.56366 0.997004 12.0088 2.68294 14.6477C2.75624 14.7943 2.82955 15.0142 2.75624 15.1608L2.31643 17.873L4.44218 16.9934H4.80869Z" fill="#333333"/>
</svg>
