<svg width="16" height="19" viewBox="0 0 16 19" fill="none" xmlns="http://www.w3.org/2000/svg">
<path d="M15.3116 4.45031L11.6343 0.838566C11.5356 0.741723 11.4029 0.687475 11.2647 0.6875L1.96762 0.6875C0.882773 0.6875 0 1.5701 0 2.65516V16.7198C0 17.8048 0.882598 18.6875 1.96766 18.6875H13.5018C14.5867 18.6875 15.4694 17.8049 15.4694 16.7198V4.82659C15.4694 4.75653 15.4555 4.68717 15.4284 4.62257C15.4013 4.55796 15.3616 4.4994 15.3116 4.45031H15.3116ZM11.792 2.47196L13.6526 4.29924H11.9597C11.9152 4.29918 11.8726 4.28149 11.8412 4.25005C11.8098 4.21862 11.7921 4.176 11.792 4.13155V2.47196ZM13.5018 17.6328H1.96766C1.46433 17.6328 1.05469 17.2233 1.05469 16.7198V2.6552C1.05469 2.15172 1.46419 1.74219 1.96766 1.74219H10.7375V4.13158C10.7375 4.8056 11.2859 5.35396 11.9599 5.35396H14.4148V16.7198C14.4148 17.2232 14.0052 17.6328 13.5018 17.6328L13.5018 17.6328Z" fill="#333333"/>
<path d="M11.3957 9.05469H3.96173C3.67046 9.05469 3.43439 9.29076 3.43439 9.58203C3.43439 9.8733 3.67046 10.1094 3.96173 10.1094H11.3957C11.6869 10.1094 11.923 9.8733 11.923 9.58203C11.923 9.29076 11.687 9.05469 11.3957 9.05469ZM3.96177 12.2188H10.0232C10.3145 12.2188 10.5505 11.9827 10.5505 11.6914C10.5505 11.4001 10.3145 11.1641 10.0232 11.1641H3.96177C3.6705 11.1641 3.43442 11.4001 3.43442 11.6914C3.43442 11.9827 3.6705 12.2188 3.96177 12.2188ZM10.7545 13.2734H3.96177C3.6705 13.2734 3.43442 13.5095 3.43442 13.8008C3.43442 14.0921 3.6705 14.3281 3.96177 14.3281H10.7545C11.0456 14.3281 11.2818 14.0921 11.2818 13.8008C11.2818 13.5095 11.0456 13.2734 10.7545 13.2734Z" fill="#333333"/>
</svg>
