<svg width="17" height="20" viewBox="0 0 17 20" fill="none" xmlns="http://www.w3.org/2000/svg">
<path d="M16.6805 13.2259C16.5267 12.9932 16.3243 12.7967 16.0872 12.6499C15.85 12.5031 15.5839 12.4095 15.307 12.3757L13.0498 12.0993V9.879C13.0498 8.93602 12.2823 8.16858 11.34 8.16858C10.3977 8.16858 9.63027 8.93602 9.63027 9.879V13.1418L9.00609 12.7557C8.65312 12.5359 8.231 12.4553 7.82187 12.5295C7.41273 12.6037 7.04584 12.8275 6.79256 13.1573C6.55465 13.4662 6.43142 13.8482 6.44393 14.238C6.45644 14.6277 6.60392 15.0011 6.86117 15.2941L9.66928 18.4829C9.98607 18.8421 10.4428 19.0486 10.9217 19.0486H14.4515C15.1913 19.0486 15.8505 18.5522 16.0556 17.8413L16.9246 14.822C17.0807 14.2785 16.9919 13.6967 16.6805 13.2259ZM15.761 14.4863L14.892 17.5056C14.8643 17.6011 14.8064 17.6851 14.727 17.745C14.6476 17.8049 14.5509 17.8375 14.4515 17.8379H10.9217C10.8565 17.8379 10.7921 17.824 10.7328 17.7973C10.6734 17.7705 10.6204 17.7314 10.5773 17.6825L7.76918 14.4944C7.69446 14.4101 7.6526 14.3017 7.65125 14.1891C7.6499 14.0764 7.68915 13.9671 7.76183 13.881C7.83451 13.7949 7.93574 13.7379 8.04702 13.7204C8.15829 13.7028 8.27216 13.7259 8.36779 13.7855L9.91545 14.7439C10.0071 14.8007 10.1123 14.832 10.2201 14.8345C10.328 14.837 10.4345 14.8107 10.5287 14.7582C10.623 14.7058 10.7015 14.6291 10.7561 14.5361C10.8108 14.4431 10.8396 14.3372 10.8396 14.2294V9.87968C10.8396 9.74714 10.8923 9.62002 10.986 9.5263C11.0797 9.43258 11.2068 9.37993 11.3393 9.37993C11.4719 9.37993 11.599 9.43258 11.6927 9.5263C11.7864 9.62002 11.8391 9.74714 11.8391 9.87968V12.6353C11.839 12.7832 11.8931 12.9261 11.9911 13.0369C12.0891 13.1477 12.2243 13.2187 12.3711 13.2366L15.1597 13.5783C15.3709 13.6039 15.5525 13.7162 15.6702 13.8944C15.7879 14.0713 15.8202 14.2819 15.761 14.4863ZM6.4455 10.4527C6.4455 10.6133 6.50927 10.7673 6.6228 10.8808C6.73632 10.9943 6.89029 11.0581 7.05084 11.0581C7.21139 11.0581 7.36536 10.9943 7.47888 10.8808C7.5924 10.7673 7.65618 10.6133 7.65618 10.4527V10.138C8.92202 9.77744 9.10766 8.93669 9.11842 8.53111C9.13994 7.687 8.48886 7.10789 7.18334 6.8106C6.27735 6.60478 6.19327 6.38349 6.19933 6.29807C6.23228 5.80976 7.21428 5.72098 7.66963 5.73376C7.66963 5.89431 7.73341 6.04828 7.84693 6.1618C7.96046 6.27533 8.11443 6.3391 8.27497 6.3391C8.43552 6.3391 8.58949 6.27533 8.70301 6.1618C8.81654 6.04828 8.88032 5.89431 8.88032 5.73376C8.88032 5.39948 8.74243 5.07461 8.50164 4.84256C8.39036 4.73242 8.25833 4.64545 8.11321 4.58669C7.96808 4.52792 7.81274 4.49853 7.65618 4.50021V4.34753C7.65618 4.18698 7.5924 4.03301 7.47888 3.91949C7.36536 3.80596 7.21139 3.74219 7.05084 3.74219C6.89029 3.74219 6.73632 3.80596 6.6228 3.91949C6.50927 4.03301 6.4455 4.18698 6.4455 4.34753V4.66432C5.27921 4.99592 5.02362 5.73645 4.99133 6.21534C4.93147 7.08973 5.57919 7.687 6.91497 7.99034C7.88756 8.21162 7.90908 8.4699 7.90841 8.49883C7.89495 9.01673 6.7031 9.08601 6.4381 9.08601H6.43743C6.42936 9.07861 6.42936 9.07188 6.42936 9.06785C6.42927 8.9073 6.3654 8.75336 6.25182 8.6399C6.13823 8.52644 5.98422 8.46275 5.82368 8.46284C5.66313 8.46293 5.5092 8.52679 5.39574 8.64038C5.28227 8.75397 5.21858 8.90797 5.21867 9.06852C5.21867 9.40617 5.35252 9.72229 5.596 9.95703C5.82334 10.177 6.13072 10.3001 6.44617 10.3041V10.4527H6.4455Z" fill="#333333"/>
<path d="M4.70216 12.745C3.66383 12.2897 2.78064 11.5418 2.16057 10.5926C1.5405 9.64347 1.21042 8.53421 1.21068 7.40046C1.21068 4.18139 3.83248 1.56228 7.05559 1.56228C8.50181 1.55764 9.89792 2.09181 10.9717 3.06062C12.0454 4.02943 12.7199 5.36344 12.8635 6.80252C12.8796 6.96226 12.9586 7.10905 13.083 7.21059C13.2073 7.31213 13.3669 7.36011 13.5267 7.34396C13.6864 7.32782 13.8332 7.24888 13.9348 7.12451C14.0363 7.00014 14.0843 6.84052 14.0681 6.68078C13.8952 4.94284 13.0811 3.33164 11.7846 2.16145C10.4881 0.991267 8.8021 0.346029 7.05559 0.351598C3.16526 0.351598 4.56807e-07 3.5135 4.56807e-07 7.40046C-0.00049255 8.76951 0.398082 10.109 1.14696 11.2551C1.89583 12.4012 2.96253 13.3041 4.21654 13.8534C4.36256 13.9123 4.52579 13.912 4.6716 13.8525C4.8174 13.7931 4.93429 13.6792 4.99748 13.5349C5.06066 13.3907 5.06517 13.2275 5.01003 13.0801C4.95489 12.9326 4.84446 12.8124 4.70216 12.745Z" fill="#333333"/>
</svg>
