<svg width="23" height="20" viewBox="0 0 23 20" fill="none" xmlns="http://www.w3.org/2000/svg">
<path d="M1.34619 15.7305V10.3151C1.34778 9.44912 1.69145 8.61885 2.30235 8.00508L5.57696 4.73047V9.80739" stroke="#333333" stroke-linecap="round" stroke-linejoin="round"/>
<path d="M6.42302 15.7312L9.40148 11.2635C9.52475 11.0789 9.59677 10.8649 9.61015 10.6434C9.62353 10.4219 9.5778 10.2008 9.47763 10.0027C9.33975 9.71784 9.09846 9.49624 8.8029 9.38305C8.50735 9.26986 8.17977 9.27359 7.88687 9.39348L4.73071 10.6542" stroke="#333333" stroke-linecap="round" stroke-linejoin="round"/>
<path d="M7.55692 15.7305H1.05846C0.750032 15.7305 0.5 15.9805 0.5 16.2889V18.5566C0.5 18.8651 0.750032 19.1151 1.05846 19.1151H7.55692C7.86535 19.1151 8.11538 18.8651 8.11538 18.5566V16.2889C8.11538 15.9805 7.86535 15.7305 7.55692 15.7305Z" stroke="#333333" stroke-linecap="round" stroke-linejoin="round"/>
<path d="M5.5769 9.80769V1.63385C5.5769 1.33313 5.69636 1.04473 5.909 0.832096C6.12164 0.619459 6.41004 0.5 6.71075 0.5H21.3661C21.6668 0.5 21.9552 0.619459 22.1679 0.832096C22.3805 1.04473 22.5 1.33313 22.5 1.63385V11.2123C22.5 11.513 22.3805 11.8014 22.1679 12.0141C21.9552 12.2267 21.6668 12.3462 21.3661 12.3462H8.96152M6.42306 3.88461H21.6538M17.4231 9.80769H19.1154" stroke="#333333" stroke-linecap="round" stroke-linejoin="round"/>
</svg>
