<svg width="24" height="19" viewBox="0 0 24 19" fill="none" xmlns="http://www.w3.org/2000/svg">
<path d="M20.839 7.2114L17.9137 5.62858C17.9991 5.3038 17.9851 4.9609 17.8738 4.6441C17.7511 4.30477 17.5241 4.01304 17.2253 3.81084C16.9264 3.60864 16.5712 3.50638 16.2106 3.51875C15.8616 3.07126 14.8654 1.77446 14.3065 1.01951C14.1492 0.807853 13.9447 0.635842 13.7092 0.517169C13.4737 0.398496 13.2138 0.336439 12.9501 0.335938H11.2188C11.1404 0.335954 11.0637 0.359166 10.9985 0.402652L10.2766 0.884144L9.3702 0.809041C9.02972 0.781365 8.68748 0.833693 8.37081 0.961846C8.05415 1.09 7.77185 1.29042 7.54644 1.54711L6.48328 2.76221L4.46236 2.02166C4.11358 1.89413 3.73115 1.89281 3.3815 2.01792C3.03185 2.14304 2.73707 2.38668 2.54838 2.70652C2.35968 3.02637 2.28899 3.40221 2.34858 3.76876C2.40817 4.13531 2.59428 4.4694 2.87457 4.713C2.67698 4.85375 2.51423 5.03786 2.3988 5.25123C2.28336 5.4646 2.2183 5.70156 2.20859 5.94396C2.19889 6.18636 2.24481 6.42776 2.34282 6.64968C2.44083 6.87159 2.58835 7.06812 2.77406 7.22421C2.60314 7.36577 2.46479 7.54256 2.36847 7.7425C2.27214 7.94244 2.22011 8.16081 2.21592 8.3827C2.21173 8.60459 2.25548 8.82477 2.34419 9.0282C2.4329 9.23163 2.56448 9.41352 2.72993 9.56143C2.67878 9.61615 2.63173 9.67455 2.58915 9.73616L2.53311 9.76172C2.5296 9.76331 2.52613 9.76497 2.52269 9.76669C1.49192 10.2738 0.693135 11.1547 0.288888 12.23C-0.115359 13.3052 -0.0946841 14.4942 0.346705 15.5547C0.788094 16.6153 1.61703 17.4679 2.6648 17.9389C3.71257 18.4099 4.90044 18.4639 5.98665 18.09L14.1031 15.297C14.144 15.3419 14.1947 15.3768 14.2513 15.3989L16.6171 16.3218C17.8097 16.7872 19.1348 16.7803 20.3225 16.3025C21.5103 15.8248 22.4711 14.9122 23.0094 13.7507C23.5477 12.5892 23.6228 11.2662 23.2196 10.0512C22.8163 8.83615 21.965 7.82056 20.839 7.2114ZM9.7555 2.47898C9.77298 2.37433 9.81184 2.2744 9.86965 2.18544C9.92745 2.09647 10.003 2.02038 10.0915 1.96189L11.3392 1.13015H12.9501C13.0897 1.13041 13.2273 1.16325 13.3519 1.22605C13.4766 1.28886 13.5848 1.37989 13.6681 1.49192C14.0851 2.05551 14.7017 2.86164 14.9474 3.18205C15.0926 3.37133 15.228 3.54724 15.3437 3.6969L13.4434 4.17874L12.2658 3.20658C12.2203 3.16902 12.1671 3.14207 12.1098 3.12768C12.0526 3.11329 11.993 3.11182 11.9351 3.12338L10.6768 3.3751C10.5326 3.40345 10.3833 3.39066 10.2459 3.33819C10.1086 3.28572 9.98879 3.19568 9.90019 3.07836C9.8362 2.99375 9.79033 2.89686 9.76544 2.79373C9.74054 2.69061 9.73716 2.58346 9.7555 2.47898ZM3.17012 3.23978C3.20585 3.14174 3.26058 3.05171 3.33117 2.97487C3.40177 2.89802 3.48684 2.83587 3.58151 2.79198C3.67618 2.74808 3.77858 2.72331 3.88285 2.71908C3.98711 2.71485 4.09118 2.73125 4.1891 2.76733L7.91783 4.13367C8.11477 4.20677 8.27473 4.35491 8.36269 4.54567C8.45066 4.73643 8.45947 4.95427 8.38719 5.15151C8.31492 5.34875 8.16744 5.50933 7.97705 5.59809C7.78666 5.68684 7.56886 5.69656 7.37132 5.62511L3.64258 4.25881C3.54464 4.22293 3.45474 4.1681 3.37799 4.09747C3.30125 4.02684 3.23916 3.94178 3.19529 3.84715C3.15142 3.75252 3.12662 3.65018 3.1223 3.54597C3.11798 3.44176 3.13423 3.33772 3.17012 3.23978ZM3.04925 5.73322C3.12172 5.53544 3.2698 5.37456 3.46089 5.28596C3.65199 5.19735 3.87045 5.18829 4.06823 5.26076L7.79687 6.62701C7.99541 6.69713 8.15796 6.84325 8.24876 7.03323C8.33957 7.2232 8.35119 7.44146 8.28106 7.64C8.21094 7.83854 8.06482 8.0011 7.87485 8.0919C7.68487 8.18271 7.46661 8.19433 7.26807 8.1242L7.25536 8.11924C7.24672 8.11596 7.23794 8.11343 7.2292 8.1108L3.52171 6.7523C3.32406 6.67964 3.16331 6.53153 3.07474 6.34049C2.98616 6.14945 2.977 5.93107 3.04925 5.73327V5.73322ZM3.53725 9.12432C3.36966 9.0735 3.22535 8.96524 3.12968 8.81856C3.03401 8.67188 2.9931 8.49618 3.01414 8.32232C3.03518 8.14847 3.11682 7.9876 3.24472 7.86798C3.37262 7.74836 3.53859 7.67765 3.71346 7.66827L6.97734 8.86426C6.98771 8.86803 6.99818 8.87131 7.00856 8.87488L7.44399 9.03983C7.51835 9.07202 7.58549 9.11881 7.64144 9.17742C7.69739 9.23603 7.74101 9.30527 7.76971 9.38105C7.80255 9.46002 7.81907 9.54483 7.81828 9.63036C7.81749 9.71588 7.7994 9.80037 7.7651 9.87872C7.70517 10.0077 7.60074 10.1108 7.47095 10.1691C7.34117 10.2274 7.19473 10.2369 7.05849 10.1959L3.53725 9.12432ZM6.58877 11.5662C6.53199 11.5946 6.4682 11.606 6.4051 11.599L3.75168 11.3043C3.59774 11.2867 3.45365 11.2196 3.34101 11.1132C3.22837 11.0068 3.15325 10.8668 3.12691 10.7141C3.10056 10.5614 3.12441 10.4042 3.19488 10.2662C3.26535 10.1282 3.37865 10.0168 3.51779 9.94861L6.59537 10.8851C6.59815 10.8877 6.60063 10.8904 6.60356 10.8929C6.64361 10.9271 6.6749 10.9705 6.69484 11.0193L6.74686 11.1468C6.77787 11.2238 6.77882 11.3097 6.74954 11.3874C6.72026 11.465 6.66289 11.5289 6.58877 11.5663V11.5662ZM5.72804 17.3392C4.88412 17.6296 3.96393 17.6072 3.13518 17.2759C2.30643 16.9447 1.62431 16.3266 1.21314 15.5345C0.801969 14.7423 0.689134 13.8288 0.895199 12.9604C1.10126 12.092 1.61251 11.3266 2.33575 10.8036C2.38256 11.1356 2.53847 11.4425 2.77892 11.676C3.01936 11.9096 3.33068 12.0565 3.66382 12.0936L6.31695 12.3884C6.35844 12.393 6.40015 12.3953 6.44189 12.3953C6.61407 12.3953 6.78394 12.3556 6.93834 12.2794C7.09275 12.2032 7.22756 12.0925 7.33235 11.9558C7.43714 11.8192 7.50911 11.6603 7.54268 11.4914C7.57626 11.3225 7.57055 11.1482 7.52599 10.9819C7.7346 10.936 7.92978 10.8425 8.09633 10.7088C8.26288 10.5751 8.39629 10.4047 8.48615 10.2109C8.56531 10.0346 8.60797 9.84414 8.61155 9.65093C8.61513 9.45772 8.57957 9.26579 8.50699 9.08669C8.45867 8.96587 8.39431 8.85211 8.31564 8.74846C8.5351 8.62209 8.72116 8.44509 8.85832 8.23221C8.99548 8.01933 9.07975 7.77674 9.1041 7.52467C9.12846 7.27261 9.09219 7.01837 8.99833 6.78317C8.90447 6.54796 8.75573 6.33861 8.56452 6.17257C8.80029 6.00505 8.98581 5.7763 9.10105 5.51103C9.21629 5.24576 9.25687 4.95405 9.21841 4.6674C9.17994 4.38075 9.06389 4.11005 8.8828 3.88454C8.7017 3.65904 8.46244 3.48729 8.19085 3.38786L7.28246 3.05498L8.14414 2.07015C8.28757 1.90676 8.46723 1.77917 8.66877 1.69759C8.8703 1.616 9.08812 1.58268 9.30483 1.60028L9.3156 1.60117C9.08847 1.87357 8.9599 2.21463 8.95068 2.56918C8.94146 2.92373 9.05215 3.27101 9.26482 3.55484C9.44364 3.79169 9.68548 3.97346 9.9627 4.07938C10.2399 4.1853 10.5414 4.2111 10.8326 4.15383L11.9058 3.93919L13.093 4.91935C13.1412 4.95905 13.198 4.98686 13.2588 5.00054C13.3197 5.01422 13.3829 5.01337 13.4434 4.99808L16.0207 4.34449C16.4856 4.22039 16.9702 4.46759 17.1243 4.90694C17.202 5.12965 17.189 5.37398 17.088 5.58717C16.9871 5.80036 16.8064 5.96532 16.5849 6.04644L14.2864 6.70504C14.2357 6.71887 14.1882 6.74263 14.1468 6.77495C14.1053 6.80727 14.0706 6.84751 14.0448 6.89333C14.019 6.93914 14.0026 6.98963 13.9965 7.04185C13.9903 7.09407 13.9946 7.14699 14.0091 7.19754C14.0236 7.24808 14.048 7.29525 14.0808 7.3363C14.1137 7.37736 14.1544 7.41148 14.2005 7.43668C14.2466 7.46189 14.2973 7.47768 14.3496 7.48313C14.4019 7.48859 14.4548 7.48361 14.5051 7.46848L16.746 6.82656C16.9473 6.85467 17.1331 6.95035 17.2729 7.09791C17.4126 7.24547 17.4981 7.43615 17.5153 7.63869C17.5325 7.84122 17.4804 8.04359 17.3675 8.21259C17.2545 8.3816 17.0875 8.50723 16.8938 8.56886L16.8928 8.56926L14.6009 9.22588C14.5506 9.2401 14.5036 9.2641 14.4626 9.29652C14.4216 9.32894 14.3874 9.36914 14.362 9.4148C14.3366 9.46047 14.3204 9.5107 14.3144 9.56262C14.3085 9.61455 14.3128 9.66714 14.3272 9.71739C14.3416 9.76763 14.3658 9.81454 14.3983 9.85542C14.4309 9.89631 14.4712 9.93036 14.517 9.95563C14.5627 9.98089 14.613 9.99688 14.6649 10.0027C14.7169 10.0085 14.7695 10.0039 14.8197 9.98937L17.0749 9.34322C17.2625 9.34436 17.445 9.40399 17.5971 9.51381C17.7492 9.62363 17.8632 9.77816 17.9233 9.95586C17.9605 10.0676 17.9754 10.1856 17.967 10.3031C17.9587 10.4206 17.9273 10.5353 17.8746 10.6407C17.8219 10.7461 17.749 10.84 17.66 10.9172C17.571 10.9944 17.4676 11.0533 17.3559 11.0905L16.7506 11.2923C16.7467 11.2936 16.743 11.2953 16.7392 11.2967L14.4641 11.9482C14.4135 11.9621 14.3661 11.9859 14.3247 12.0183C14.2833 12.0506 14.2487 12.0908 14.223 12.1366C14.1972 12.1824 14.1808 12.2329 14.1747 12.2851C14.1686 12.3372 14.1729 12.3901 14.1874 12.4406C14.2019 12.4911 14.2262 12.5382 14.259 12.5793C14.2918 12.6203 14.3325 12.6544 14.3785 12.6796C14.4246 12.7048 14.4753 12.7206 14.5275 12.7261C14.5798 12.7317 14.6326 12.7267 14.6829 12.7117L16.9263 12.069C17.0866 12.0843 17.2369 12.1543 17.3517 12.2673C17.4665 12.3803 17.5389 12.5294 17.5567 12.6895C17.5745 12.8496 17.5367 13.0109 17.4495 13.1464C17.3623 13.2819 17.2311 13.3832 17.078 13.4333L5.72804 17.3392ZM22.308 13.3738C21.8627 14.3646 21.0537 15.1464 20.0481 15.5574C19.0426 15.9684 17.9175 15.9771 16.9057 15.5819L15.2041 14.918L17.3328 14.1855C17.5747 14.1046 17.792 13.9631 17.964 13.7746C18.1359 13.586 18.2568 13.3567 18.3151 13.1082C18.3734 12.8598 18.3673 12.6006 18.2973 12.3552C18.2273 12.1099 18.0957 11.8865 17.915 11.7063C18.1718 11.559 18.3853 11.347 18.5344 11.0912C18.6834 10.8355 18.7626 10.5451 18.7641 10.2492C18.7656 9.9532 18.6894 9.66203 18.543 9.40481C18.3966 9.14758 18.1851 8.93333 17.9299 8.7835C18.077 8.60585 18.1856 8.39967 18.249 8.17795C18.3125 7.95623 18.3293 7.72378 18.2985 7.49523C18.2438 7.08037 18.0383 6.70017 17.7211 6.42726L20.4611 7.90991C21.4021 8.41906 22.1155 9.26541 22.4581 10.279C22.8007 11.2925 22.7471 12.3981 22.308 13.3738Z" fill="#333333"/>
</svg>
