<svg width="15" height="19" viewBox="0 0 15 19" fill="none" xmlns="http://www.w3.org/2000/svg">
<path d="M14.6377 13.7597C14.4049 13.4848 14.0827 13.3006 13.7277 13.2396C13.3646 13.1814 12.9656 13.2396 12.5128 13.4279L9.44191 14.6339C9.44191 14.4994 9.41501 14.3559 9.37018 14.208C9.30462 14.0062 9.19729 13.8204 9.05516 13.6628C8.91304 13.5053 8.73931 13.3794 8.5453 13.2934C8.50495 13.2755 7.10176 12.7017 7.10176 12.7017L4.72575 11.7154C4.55577 11.6428 4.37261 11.6062 4.18779 11.6078C3.47947 11.6078 2.79356 11.8902 2.29595 12.3879C2.17939 12.5044 2.06731 12.6389 1.97765 12.7734L0.211335 13.8762C0.058912 13.9749 -0.0217825 14.1542 0.00511576 14.3335L0.538597 17.4313C0.54902 17.4913 0.571592 17.5485 0.604928 17.5995C0.638264 17.6504 0.681661 17.694 0.732456 17.7276C0.783251 17.7612 0.840373 17.784 0.900316 17.7948C0.96026 17.8055 1.02176 17.8038 1.08104 17.7899L2.34526 17.4896C3.5781 17.1982 4.96335 17.763 6.21412 18.2786L7.11521 18.6507C7.40213 18.7717 7.69801 18.83 7.99389 18.83C8.45564 18.83 8.91291 18.6865 9.34328 18.4086L14.2298 15.925C14.427 15.8263 14.6781 15.6694 14.844 15.3601C15.113 14.8625 15.0278 14.2169 14.6377 13.7597ZM14.055 14.9342C14.0191 14.997 13.9698 15.0508 13.8263 15.1225L8.90394 17.624C8.40184 17.9468 7.93112 18.0096 7.46041 17.8168L6.53242 17.4313C5.46097 16.9919 4.27297 16.5078 3.07151 16.5078C2.76218 16.5078 2.45285 16.5392 2.13904 16.6154L1.34106 16.8036L0.937587 14.4725L2.53355 13.4728C2.59183 13.4369 2.64114 13.3876 2.67701 13.3293C2.74867 13.2156 2.83288 13.1104 2.92806 13.0155C3.26279 12.6858 3.71351 12.5007 4.18331 12.4999C4.25503 12.4999 4.3178 12.5134 4.37159 12.5358L6.75209 13.5266L8.18666 14.1138C8.33908 14.1856 8.45564 14.3156 8.50944 14.4814C8.53185 14.5576 8.5453 14.6204 8.53633 14.6697C8.52737 14.7459 8.5184 14.8401 8.49599 14.8939C8.46461 14.9701 8.41978 15.0329 8.36598 15.0911L8.35253 15.1046C8.19114 15.257 7.93561 15.3063 7.72042 15.2167L5.69857 14.3783C5.46994 14.2842 5.20544 14.3918 5.11129 14.6204C5.01715 14.849 5.12474 15.1135 5.35338 15.2077L7.37523 16.046C7.89078 16.2612 8.50495 16.1536 8.90843 15.8084L12.8356 14.2663C13.1359 14.1452 13.378 14.1004 13.5708 14.1318C13.7098 14.1542 13.8443 14.2349 13.9429 14.3514C14.0908 14.5263 14.1312 14.7728 14.0415 14.9432L14.055 14.9342ZM1.53383 9.47837C1.56073 9.47837 1.58763 9.47837 1.61453 9.4694C1.85661 9.42457 2.018 9.19146 1.97765 8.94937C1.94179 8.76108 1.92834 8.58625 1.92834 8.42037C1.92834 6.64509 3.43464 5.20155 5.29062 5.20155C5.89134 5.20155 6.47414 5.35846 6.98969 5.64537C7.17349 5.9278 7.40661 6.17437 7.67559 6.37611C5.83306 7.0127 4.42987 8.62659 4.11158 10.6753C4.07571 10.9219 4.24159 11.1505 4.48815 11.1864C4.51057 11.1864 4.53298 11.1909 4.5554 11.1909C4.77058 11.1909 4.96335 11.034 4.99922 10.8098C5.34441 8.58625 7.20487 6.97235 9.42846 6.97235C11.652 6.97235 13.5035 8.58176 13.8532 10.7964C13.8936 11.0429 14.1222 11.2088 14.3643 11.1685C14.6109 11.1281 14.7767 10.8995 14.7364 10.6574C14.4136 8.60866 13.0059 6.99925 11.1589 6.36714C11.8672 5.82918 12.3245 4.9774 12.3245 4.01355C12.3245 2.39069 11.0155 1.06819 9.41053 1.06819C8.64393 1.06819 7.94906 1.37304 7.42902 1.86169C7.23649 1.45642 6.93295 1.11409 6.55363 0.874439C6.17432 0.63479 5.73481 0.50766 5.28613 0.507813C3.98157 0.507813 2.91909 1.56133 2.91909 2.85244C2.91909 3.54731 3.2329 4.16597 3.71707 4.59186C2.14352 5.19707 1.02725 6.68095 1.02725 8.41589C1.02725 8.64004 1.04966 8.86419 1.09449 9.10628C1.13484 9.32146 1.32313 9.47389 1.53383 9.47389V9.47837ZM9.41053 1.96928C10.5223 1.96928 11.4279 2.88831 11.4279 4.01803C11.4279 5.14776 10.5223 6.06678 9.41053 6.06678C8.29873 6.06678 7.39316 5.14776 7.39316 4.01803C7.39316 2.88831 8.29873 1.96928 9.41053 1.96928ZM5.28613 1.4089C6.07066 1.4089 6.70726 2.01411 6.75209 2.81658C6.63553 3.07211 6.55932 3.35006 6.52345 3.64146C6.24999 4.05389 5.78823 4.30494 5.28613 4.30494C4.4747 4.30494 3.8157 3.6549 3.8157 2.85692C3.8157 2.05894 4.4747 1.4089 5.28613 1.4089Z" fill="#333333"/>
</svg>
