<svg width="18" height="19" viewBox="0 0 18 19" fill="none" xmlns="http://www.w3.org/2000/svg">
<path d="M3.55813 3.36128C3.90491 3.36128 4.18604 3.08016 4.18604 2.73338C4.18604 2.38659 3.90491 2.10547 3.55813 2.10547C3.21135 2.10547 2.93022 2.38659 2.93022 2.73338C2.93022 3.08016 3.21135 3.36128 3.55813 3.36128Z" fill="#333333"/>
<path d="M5.65121 3.36128C5.99799 3.36128 6.27911 3.08016 6.27911 2.73338C6.27911 2.38659 5.99799 2.10547 5.65121 2.10547C5.30442 2.10547 5.0233 2.38659 5.0233 2.73338C5.0233 3.08016 5.30442 3.36128 5.65121 3.36128Z" fill="#333333"/>
<path d="M7.74416 3.36128C8.09095 3.36128 8.37207 3.08016 8.37207 2.73338C8.37207 2.38659 8.09095 2.10547 7.74416 2.10547C7.39738 2.10547 7.11626 2.38659 7.11626 2.73338C7.11626 3.08016 7.39738 3.36128 7.74416 3.36128Z" fill="#333333"/>
<path fill-rule="evenodd" clip-rule="evenodd" d="M18 6.50009C18 6.66662 17.9338 6.82633 17.8161 6.94409C17.6983 7.06184 17.5386 7.128 17.3721 7.128C17.2056 7.128 17.0459 7.06184 16.9281 6.94409C16.8103 6.82633 16.7442 6.66662 16.7442 6.50009V2.73265C16.7442 2.34408 16.5898 1.97142 16.3151 1.69666C16.0403 1.42189 15.6676 1.26753 15.2791 1.26753H2.72093C2.33236 1.26753 1.9597 1.42189 1.68494 1.69666C1.41017 1.97142 1.25581 2.34408 1.25581 2.73265V15.2908C1.25581 16.1004 1.91135 16.7559 2.72093 16.7559H9.83721C10.0037 16.7559 10.1635 16.8221 10.2812 16.9398C10.399 17.0576 10.4651 17.2173 10.4651 17.3838C10.4651 17.5503 10.399 17.7101 10.2812 17.8278C10.1635 17.9456 10.0037 18.0117 9.83721 18.0117H2.72093C1.99929 18.0117 1.30722 17.725 0.796942 17.2148C0.286669 16.7045 0 16.0124 0 15.2908V2.73265C0 2.01101 0.286669 1.31893 0.796942 0.808661C1.30722 0.298387 1.99929 0.0117188 2.72093 0.0117188H15.2791C16.0007 0.0117188 16.6928 0.298387 17.2031 0.808661C17.7133 1.31893 18 2.01101 18 2.73265V6.50009Z" fill="#333333"/>
<path fill-rule="evenodd" clip-rule="evenodd" d="M13.6892 8.06545C13.7706 7.89107 13.8855 7.73442 14.0273 7.60445C14.1692 7.47448 14.3353 7.37373 14.5162 7.30796C14.697 7.24219 14.889 7.21268 15.0813 7.22112C15.2735 7.22957 15.4622 7.2758 15.6366 7.35717L17.1536 8.06461C17.5058 8.22892 17.7783 8.52634 17.9112 8.8915C18.0442 9.25666 18.0268 9.65967 17.8627 10.012L15.0321 16.0817C14.9794 16.1939 14.895 16.2882 14.7893 16.353L12.2099 17.9219C12.1215 17.9756 12.0213 18.0067 11.918 18.0123C11.8148 18.018 11.7118 17.998 11.6181 17.9543C11.5244 17.9106 11.443 17.8444 11.3811 17.7616C11.3191 17.6789 11.2785 17.5821 11.263 17.4799L10.8075 14.4961C10.7886 14.3736 10.8064 14.2484 10.8586 14.1361L13.6892 8.06545ZM14.8278 8.59624L12.0776 14.4944L12.3622 16.3597L13.9739 15.3793L16.7241 9.48117C16.7359 9.45631 16.7427 9.42934 16.7439 9.40184C16.7452 9.37434 16.7411 9.34686 16.7316 9.32099C16.7222 9.29513 16.7077 9.27139 16.689 9.25117C16.6704 9.23096 16.6478 9.21465 16.6228 9.20322L15.1058 8.49494C15.0555 8.47154 14.9979 8.46907 14.9458 8.48807C14.8937 8.50706 14.8513 8.54597 14.8278 8.59624ZM17.3721 4.19922C17.5386 4.19922 17.6983 4.26537 17.8161 4.38313C17.9338 4.50088 18 4.66059 18 4.82713C18 4.99366 17.9338 5.15337 17.8161 5.27112C17.6983 5.38888 17.5386 5.45503 17.3721 5.45503H0.627907C0.461376 5.45503 0.301665 5.38888 0.18391 5.27112C0.0661543 5.15337 0 4.99366 0 4.82713C0 4.66059 0.0661543 4.50088 0.18391 4.38313C0.301665 4.26537 0.461376 4.19922 0.627907 4.19922H17.3721Z" fill="#333333"/>
<path fill-rule="evenodd" clip-rule="evenodd" d="M13.2857 10.4175C13.1347 10.3471 13.0179 10.2196 12.9609 10.0631C12.9039 9.90652 12.9114 9.73375 12.9818 9.58277C13.0522 9.43178 13.1797 9.31493 13.3362 9.25794C13.4927 9.20095 13.6655 9.20847 13.8165 9.27886L16.8514 10.6946C16.928 10.7282 16.9971 10.7768 17.0546 10.8375C17.1122 10.8983 17.157 10.9699 17.1865 11.0482C17.216 11.1264 17.2296 11.2098 17.2264 11.2934C17.2232 11.377 17.2033 11.4591 17.1679 11.535C17.1326 11.6108 17.0824 11.6788 17.0204 11.7349C16.9584 11.7911 16.8858 11.8343 16.8068 11.862C16.7279 11.8897 16.6442 11.9013 16.5607 11.8962C16.4772 11.8912 16.3956 11.8694 16.3206 11.8323L13.2857 10.4175ZM3.97677 8.38472C3.81024 8.38472 3.65053 8.31857 3.53277 8.20081C3.41502 8.08305 3.34886 7.92334 3.34886 7.75681C3.34886 7.59028 3.41502 7.43057 3.53277 7.31282C3.65053 7.19506 3.81024 7.12891 3.97677 7.12891H9.83723C10.0038 7.12891 10.1635 7.19506 10.2812 7.31282C10.399 7.43057 10.4651 7.59028 10.4651 7.75681C10.4651 7.92334 10.399 8.08305 10.2812 8.20081C10.1635 8.31857 10.0038 8.38472 9.83723 8.38472H3.97677ZM3.97677 11.7336C3.81024 11.7336 3.65053 11.6674 3.53277 11.5496C3.41502 11.4319 3.34886 11.2722 3.34886 11.1056C3.34886 10.9391 3.41502 10.7794 3.53277 10.6617C3.65053 10.5439 3.81024 10.4777 3.97677 10.4777H9.83723C10.0038 10.4777 10.1635 10.5439 10.2812 10.6617C10.399 10.7794 10.4651 10.9391 10.4651 11.1056C10.4651 11.2722 10.399 11.4319 10.2812 11.5496C10.1635 11.6674 10.0038 11.7336 9.83723 11.7336H3.97677ZM3.97677 15.0824C3.81024 15.0824 3.65053 15.0162 3.53277 14.8985C3.41502 14.7807 3.34886 14.621 3.34886 14.4545C3.34886 14.288 3.41502 14.1282 3.53277 14.0105C3.65053 13.8927 3.81024 13.8266 3.97677 13.8266H8.16282C8.32935 13.8266 8.48906 13.8927 8.60681 14.0105C8.72457 14.1282 8.79072 14.288 8.79072 14.4545C8.79072 14.621 8.72457 14.7807 8.60681 14.8985C8.48906 15.0162 8.32935 15.0824 8.16282 15.0824H3.97677Z" fill="#333333"/>
</svg>
