<svg width="20" height="18" viewBox="0 0 20 18" fill="none" xmlns="http://www.w3.org/2000/svg">
<path d="M17.5625 4.1875H16.1875V2.125C16.1875 1.57799 15.9702 1.05339 15.5834 0.666592C15.1966 0.279799 14.672 0.0625 14.125 0.0625H3.8125C3.26549 0.0625 2.74089 0.279799 2.35409 0.666592C1.9673 1.05339 1.75 1.57799 1.75 2.125V11.0625C1.75 11.2448 1.82243 11.4197 1.95136 11.5486C2.0803 11.6776 2.25516 11.75 2.4375 11.75C2.61984 11.75 2.7947 11.6776 2.92364 11.5486C3.05257 11.4197 3.125 11.2448 3.125 11.0625V2.125C3.125 1.94266 3.19743 1.7678 3.32636 1.63886C3.4553 1.50993 3.63016 1.4375 3.8125 1.4375H14.125C14.3073 1.4375 14.4822 1.50993 14.6111 1.63886C14.7401 1.7678 14.8125 1.94266 14.8125 2.125V15.5312C14.814 15.8887 14.8962 16.2413 15.0531 16.5625H5.1875C5.00516 16.5625 4.8303 16.6349 4.70136 16.7639C4.57243 16.8928 4.5 17.0677 4.5 17.25C4.5 17.4323 4.57243 17.6072 4.70136 17.7361C4.8303 17.8651 5.00516 17.9375 5.1875 17.9375H17.2188C17.8569 17.9375 18.469 17.684 18.9202 17.2327C19.3715 16.7815 19.625 16.1694 19.625 15.5312V6.25C19.625 5.70299 19.4077 5.17839 19.0209 4.79159C18.6341 4.4048 18.1095 4.1875 17.5625 4.1875ZM18.25 15.5312C18.25 15.8048 18.1413 16.0671 17.948 16.2605C17.7546 16.4538 17.4923 16.5625 17.2188 16.5625C16.9452 16.5625 16.6829 16.4538 16.4895 16.2605C16.2962 16.0671 16.1875 15.8048 16.1875 15.5312V5.5625H17.5625C17.7448 5.5625 17.9197 5.63493 18.0486 5.76386C18.1776 5.8928 18.25 6.06766 18.25 6.25V15.5312Z" fill="white"/>
<path d="M5.1875 15.875C5.36984 15.875 5.5447 15.8026 5.67364 15.6736C5.80257 15.5447 5.875 15.3698 5.875 15.1875C5.875 15.0052 5.80257 14.8303 5.67364 14.7014C5.5447 14.5724 5.36984 14.5 5.1875 14.5H3.8125V13.125C3.8125 12.9427 3.74007 12.7678 3.61114 12.6389C3.4822 12.5099 3.30734 12.4375 3.125 12.4375C2.94266 12.4375 2.7678 12.5099 2.63886 12.6389C2.50993 12.7678 2.4375 12.9427 2.4375 13.125V14.5H1.0625C0.880164 14.5 0.705295 14.5724 0.576364 14.7014C0.447433 14.8303 0.375 15.0052 0.375 15.1875C0.375 15.3698 0.447433 15.5447 0.576364 15.6736C0.705295 15.8026 0.880164 15.875 1.0625 15.875H2.4375V17.25C2.4375 17.4323 2.50993 17.6072 2.63886 17.7361C2.7678 17.8651 2.94266 17.9375 3.125 17.9375C3.30734 17.9375 3.4822 17.8651 3.61114 17.7361C3.74007 17.6072 3.8125 17.4323 3.8125 17.25V15.875H5.1875ZM12.75 5.5625C12.9323 5.5625 13.1072 5.49007 13.2361 5.36114C13.3651 5.2322 13.4375 5.05734 13.4375 4.875C13.4375 4.69266 13.3651 4.5178 13.2361 4.38886C13.1072 4.25993 12.9323 4.1875 12.75 4.1875H7.25C7.06766 4.1875 6.8928 4.25993 6.76386 4.38886C6.63493 4.5178 6.5625 4.69266 6.5625 4.875C6.5625 5.05734 6.63493 5.2322 6.76386 5.36114C6.8928 5.49007 7.06766 5.5625 7.25 5.5625H12.75ZM4.5 7.625C4.5 7.80734 4.57243 7.9822 4.70136 8.11114C4.8303 8.24007 5.00516 8.3125 5.1875 8.3125H12.75C12.9323 8.3125 13.1072 8.24007 13.2361 8.11114C13.3651 7.9822 13.4375 7.80734 13.4375 7.625C13.4375 7.44266 13.3651 7.2678 13.2361 7.13886C13.1072 7.00993 12.9323 6.9375 12.75 6.9375H5.1875C5.00516 6.9375 4.8303 7.00993 4.70136 7.13886C4.57243 7.2678 4.5 7.44266 4.5 7.625Z" fill="white"/>
</svg>
