<svg width="18" height="18" viewBox="0 0 18 18" fill="none" xmlns="http://www.w3.org/2000/svg">
<g clip-path="url(#clip0_1524_18879)">
<path fill-rule="evenodd" clip-rule="evenodd" d="M9 15.9375C9.14919 15.9375 9.29226 15.9968 9.39775 16.1023C9.50324 16.2077 9.5625 16.3508 9.5625 16.5C9.5625 16.6492 9.50324 16.7923 9.39775 16.8977C9.29226 17.0032 9.14919 17.0625 9 17.0625H3C2.45325 17.0625 1.92825 16.845 1.54125 16.4588C1.15485 16.0716 0.93773 15.547 0.9375 15V3C0.9375 2.45325 1.155 1.92825 1.54125 1.54125C1.92842 1.15485 2.453 0.93773 3 0.9375H9.4395C9.7875 0.9375 10.1213 1.0755 10.3673 1.32225L13.6778 4.63275C13.9245 4.87875 14.0625 5.2125 14.0625 5.5605V8.25C14.0625 8.39918 14.0032 8.54226 13.8977 8.64775C13.7923 8.75324 13.6492 8.8125 13.5 8.8125C13.3508 8.8125 13.2077 8.75324 13.1023 8.64775C12.9968 8.54226 12.9375 8.39918 12.9375 8.25V5.5605C12.9375 5.53586 12.9327 5.51145 12.9233 5.48868C12.9139 5.4659 12.9002 5.4452 12.8828 5.42775L9.57225 2.11725C9.55481 2.09985 9.5341 2.08606 9.51132 2.07666C9.48855 2.06727 9.46414 2.06246 9.4395 2.0625H3C2.75148 2.0629 2.51326 2.1618 2.33753 2.33753C2.1618 2.51326 2.0629 2.75148 2.0625 3V15C2.0629 15.2485 2.1618 15.4867 2.33753 15.6625C2.51326 15.8382 2.75148 15.9371 3 15.9375H9Z" fill="white"/>
<path fill-rule="evenodd" clip-rule="evenodd" d="M9.1875 1.875C9.1875 1.72582 9.24676 1.58274 9.35225 1.47725C9.45774 1.37176 9.60082 1.3125 9.75 1.3125C9.89918 1.3125 10.0423 1.37176 10.1477 1.47725C10.2532 1.58274 10.3125 1.72582 10.3125 1.875V4.5C10.3125 4.6035 10.3965 4.6875 10.5 4.6875H13.125C13.2742 4.6875 13.4173 4.74676 13.5227 4.85225C13.6282 4.95774 13.6875 5.10082 13.6875 5.25C13.6875 5.39918 13.6282 5.54226 13.5227 5.64775C13.4173 5.75324 13.2742 5.8125 13.125 5.8125H10.5C10.1519 5.8125 9.81806 5.67422 9.57192 5.42808C9.32578 5.18194 9.1875 4.8481 9.1875 4.5V1.875ZM4.5 8.4375C4.35082 8.4375 4.20774 8.37824 4.10225 8.27275C3.99676 8.16726 3.9375 8.02418 3.9375 7.875C3.9375 7.72582 3.99676 7.58274 4.10225 7.47725C4.20774 7.37176 4.35082 7.3125 4.5 7.3125H10.5C10.6492 7.3125 10.7923 7.37176 10.8977 7.47725C11.0032 7.58274 11.0625 7.72582 11.0625 7.875C11.0625 8.02418 11.0032 8.16726 10.8977 8.27275C10.7923 8.37824 10.6492 8.4375 10.5 8.4375H4.5ZM4.5 11.0625C4.35082 11.0625 4.20774 11.0032 4.10225 10.8977C3.99676 10.7923 3.9375 10.6492 3.9375 10.5C3.9375 10.3508 3.99676 10.2077 4.10225 10.1023C4.20774 9.99676 4.35082 9.9375 4.5 9.9375H7.875C8.02418 9.9375 8.16726 9.99676 8.27275 10.1023C8.37824 10.2077 8.4375 10.3508 8.4375 10.5C8.4375 10.6492 8.37824 10.7923 8.27275 10.8977C8.16726 11.0032 8.02418 11.0625 7.875 11.0625H4.5ZM4.5 13.6875C4.35082 13.6875 4.20774 13.6282 4.10225 13.5227C3.99676 13.4173 3.9375 13.2742 3.9375 13.125C3.9375 12.9758 3.99676 12.8327 4.10225 12.7273C4.20774 12.6218 4.35082 12.5625 4.5 12.5625H7.875C8.02418 12.5625 8.16726 12.6218 8.27275 12.7273C8.37824 12.8327 8.4375 12.9758 8.4375 13.125C8.4375 13.2742 8.37824 13.4173 8.27275 13.5227C8.16726 13.6282 8.02418 13.6875 7.875 13.6875H4.5Z" fill="white"/>
<path d="M13.3955 14.3438C14.0168 14.3438 14.5205 13.8401 14.5205 13.2188C14.5205 12.5974 14.0168 12.0938 13.3955 12.0938C12.7742 12.0938 12.2705 12.5974 12.2705 13.2188C12.2705 13.8401 12.7742 14.3438 13.3955 14.3438Z" fill="white"/>
<path fill-rule="evenodd" clip-rule="evenodd" d="M14.5472 9.783L14.8127 10.4242C14.9139 10.4752 15.0122 10.5322 15.1074 10.5937L15.7959 10.5037C15.8878 10.492 15.9811 10.503 16.0677 10.5358C16.1543 10.5686 16.2315 10.6223 16.2924 10.692C16.6194 11.067 16.8707 11.5027 17.0327 11.9737C17.0626 12.0615 17.0704 12.1552 17.0554 12.2467C17.0403 12.3382 17.0029 12.4245 16.9464 12.498L16.5249 13.0485C16.5309 13.1617 16.5309 13.2757 16.5249 13.3882L16.9464 13.9395C17.0029 14.013 17.0403 14.0993 17.0554 14.1908C17.0704 14.2823 17.0626 14.376 17.0327 14.4637C16.8709 14.9347 16.6195 15.37 16.2924 15.7455C16.2315 15.8152 16.1543 15.8689 16.0677 15.9017C15.9811 15.9345 15.8878 15.9455 15.7959 15.9337C15.7959 15.9337 15.1074 15.8437 15.1082 15.843C15.0131 15.9051 14.9147 15.9619 14.8134 16.0132L14.5472 16.6545C14.5117 16.7401 14.4557 16.8156 14.3839 16.8742C14.3122 16.9328 14.2271 16.9728 14.1362 16.9905C13.6474 17.0865 13.1445 17.0865 12.6557 16.9905C12.5648 16.9728 12.4796 16.9328 12.4079 16.8742C12.3362 16.8156 12.2801 16.7401 12.2447 16.6545L11.9792 16.0132C11.8779 15.9622 11.7795 15.9056 11.6844 15.8437L10.9959 15.9337C10.9041 15.9456 10.8107 15.9346 10.7241 15.9018C10.6375 15.869 10.5603 15.8153 10.4994 15.7455C10.1718 15.3704 9.92038 14.935 9.75919 14.4637C9.72929 14.3761 9.72145 14.2824 9.73636 14.1909C9.75127 14.0995 9.78848 14.0131 9.84469 13.9395L10.2669 13.389C10.2609 13.2758 10.2609 13.1624 10.2669 13.0492L9.84469 12.498C9.78848 12.4244 9.75127 12.338 9.73636 12.2466C9.72145 12.1551 9.72929 12.0614 9.75919 11.9737C9.92044 11.5027 10.1717 11.067 10.4994 10.692C10.5603 10.6222 10.6375 10.5685 10.7241 10.5357C10.8107 10.5029 10.9041 10.4919 10.9959 10.5037C10.9959 10.5037 11.6844 10.5937 11.6837 10.5945C11.7789 10.5322 11.8772 10.4752 11.9784 10.4242L12.2447 9.783C12.2801 9.69741 12.3362 9.62194 12.4079 9.56331C12.4796 9.50468 12.5648 9.46472 12.6557 9.447C13.1445 9.351 13.6474 9.351 14.1362 9.447C14.2271 9.46472 14.3122 9.50468 14.3839 9.56331C14.4557 9.62194 14.5117 9.69741 14.5472 9.783ZM13.6307 10.5105C13.4745 10.4966 13.3174 10.4966 13.1612 10.5105L12.9332 11.0587C12.8759 11.1963 12.7664 11.3056 12.6287 11.3625C12.4654 11.4299 12.3118 11.5187 12.1719 11.6265C12.0536 11.7171 11.9043 11.7573 11.7564 11.7382L11.1677 11.661C11.0777 11.79 10.9989 11.9257 10.9329 12.0682L11.2937 12.5392C11.3843 12.6578 11.4242 12.8075 11.4047 12.9555C11.3814 13.1302 11.3814 13.3073 11.4047 13.482C11.4242 13.63 11.3843 13.7797 11.2937 13.8982L10.9329 14.37C10.9989 14.5117 11.0777 14.6482 11.1677 14.7765L11.7564 14.6992C11.9043 14.6802 12.0536 14.7204 12.1719 14.811C12.3122 14.919 12.4652 15.0075 12.6287 15.075C12.7664 15.1319 12.8759 15.2412 12.9332 15.3787L13.1612 15.927C13.3172 15.9412 13.4747 15.9412 13.6307 15.927L13.8587 15.3787C13.9159 15.2412 14.0255 15.1319 14.1632 15.075C14.3259 15.0075 14.4797 14.919 14.6199 14.811C14.7383 14.7204 14.8876 14.6802 15.0354 14.6992L15.6242 14.7765C15.7142 14.6475 15.7929 14.5117 15.8589 14.3692L15.4982 13.8982C15.4076 13.7797 15.3677 13.63 15.3872 13.482C15.4097 13.3072 15.4097 13.1303 15.3872 12.9555C15.3677 12.8075 15.4076 12.6578 15.4982 12.5392L15.8589 12.0675C15.7925 11.9255 15.7139 11.7895 15.6242 11.661L15.0354 11.7382C14.8876 11.7573 14.7383 11.7171 14.6199 11.6265C14.4799 11.5188 14.3264 11.4301 14.1632 11.3625C14.0255 11.3056 13.9159 11.1963 13.8587 11.0587L13.6307 10.5105Z" fill="white"/>
</g>
<defs>
<clipPath id="clip0_1524_18879">
<rect width="18" height="18" fill="white"/>
</clipPath>
</defs>
</svg>
