<svg width="18" height="18" viewBox="0 0 18 18" fill="none" xmlns="http://www.w3.org/2000/svg">
<path fill-rule="evenodd" clip-rule="evenodd" d="M1.4804 8.80422C1.46733 8.81647 1.45681 8.83118 1.44945 8.84751C1.44209 8.86384 1.43802 8.88147 1.4375 8.89937V11.9244C1.4375 12.4524 1.872 12.8869 2.4 12.8869H3.59185C3.6705 12.8869 3.72935 12.828 3.72935 12.7494V8.89937C3.72865 8.86312 3.71393 8.82856 3.6883 8.80292C3.66266 8.77729 3.6281 8.76258 3.59185 8.76187H1.575C1.53911 8.76293 1.5051 8.77816 1.4804 8.80422ZM0.0625 8.89937C0.0646667 8.4989 0.224715 8.11545 0.507895 7.83227C0.791076 7.54909 1.17453 7.38904 1.575 7.38687H3.59185C3.99281 7.38745 4.37718 7.54699 4.66071 7.83052C4.94423 8.11404 5.10377 8.49841 5.10435 8.89937V12.7494C5.10478 12.9481 5.06596 13.145 4.9901 13.3287C4.91425 13.5124 4.80286 13.6793 4.66232 13.8198C4.52178 13.9604 4.35487 14.0718 4.17117 14.1476C3.98747 14.2235 3.7906 14.2623 3.59185 14.2619H2.4C1.113 14.2619 0.0625 13.2114 0.0625 11.9244V8.89937Z" fill="white"/>
<path fill-rule="evenodd" clip-rule="evenodd" d="M8.99986 1.42816C8.24729 1.42751 7.50197 1.57526 6.80656 1.86296C6.11115 2.15065 5.47929 2.57265 4.94714 3.1048C4.41499 3.63695 3.993 4.2688 3.7053 4.96421C3.41761 5.65963 3.26986 6.40494 3.27051 7.15751V8.08316C3.27051 8.2655 3.19808 8.44037 3.06914 8.5693C2.94021 8.69823 2.76534 8.77066 2.58301 8.77066C2.40067 8.77066 2.2258 8.69823 2.09687 8.5693C1.96794 8.44037 1.89551 8.2655 1.89551 8.08316V7.15751C1.89551 3.23051 5.07286 0.0531616 8.99986 0.0531616C12.9269 0.0531616 16.1042 3.23051 16.1042 7.15751V8.07436C16.1042 8.2567 16.0318 8.43157 15.9028 8.5605C15.7739 8.68943 15.599 8.76186 15.4167 8.76186C15.2344 8.76186 15.0595 8.68943 14.9306 8.5605C14.8016 8.43157 14.7292 8.2567 14.7292 8.07436V7.15751C14.7292 3.98951 12.1679 1.42816 8.99986 1.42816ZM15.4602 12.9001C15.5487 12.9178 15.6329 12.9528 15.708 13.0031C15.783 13.0534 15.8474 13.118 15.8974 13.1932C15.9475 13.2684 15.9822 13.3527 15.9997 13.4413C16.0171 13.5299 16.017 13.6211 15.9992 13.7097C15.5141 16.1236 13.3856 17.9375 10.833 17.9375H9.91671C9.73437 17.9375 9.5595 17.8651 9.43057 17.7361C9.30164 17.6072 9.22921 17.4323 9.22921 17.25C9.22921 17.0677 9.30164 16.8928 9.43057 16.7639C9.5595 16.6349 9.73437 16.5625 9.91671 16.5625H10.833C11.7322 16.5625 12.6037 16.2514 13.2997 15.682C13.9956 15.1126 14.4731 14.3199 14.6511 13.4385C14.6871 13.2599 14.7925 13.1028 14.9442 13.0018C15.0959 12.9009 15.2815 12.8643 15.4602 12.9001Z" fill="white"/>
<path fill-rule="evenodd" clip-rule="evenodd" d="M14.3134 8.80422C14.3003 8.81647 14.2898 8.83118 14.2825 8.84751C14.2751 8.86384 14.271 8.88147 14.2705 8.89937V12.7494C14.2705 12.8236 14.3343 12.8869 14.408 12.8869H15.5542C16.1097 12.8869 16.5624 12.4337 16.5624 11.8782V8.89937C16.5617 8.86312 16.5469 8.82856 16.5213 8.80292C16.4957 8.77729 16.4611 8.76258 16.4249 8.76187H14.408C14.3721 8.76293 14.3381 8.77816 14.3134 8.80422ZM12.8955 8.89937C12.8977 8.4989 13.0577 8.11545 13.3409 7.83227C13.6241 7.54909 14.0075 7.38904 14.408 7.38687H16.4249C16.8258 7.38745 17.2102 7.54699 17.4937 7.83052C17.7772 8.11404 17.9368 8.49841 17.9374 8.89937V11.8782C17.9369 12.5101 17.6857 13.1161 17.2389 13.563C16.7921 14.0099 16.1862 14.2613 15.5542 14.2619H14.408C14.007 14.2613 13.6227 14.1018 13.3392 13.8182C13.0556 13.5347 12.8961 13.1503 12.8955 12.7494V8.89937Z" fill="white"/>
</svg>
