<svg width="18" height="18" viewBox="0 0 18 18" fill="none" xmlns="http://www.w3.org/2000/svg">
<path d="M12.3679 3.69955H5.04922C4.91495 3.69955 4.78619 3.75289 4.69125 3.84783C4.59631 3.94277 4.54297 4.07154 4.54297 4.2058C4.54297 4.34007 4.59631 4.46884 4.69125 4.56378C4.78619 4.65872 4.91495 4.71205 5.04922 4.71205H12.3685C12.5027 4.71198 12.6315 4.65857 12.7264 4.56358C12.8212 4.46859 12.8745 4.33979 12.8744 4.20552C12.8744 4.07126 12.821 3.94252 12.726 3.84763C12.631 3.75275 12.5022 3.69948 12.3679 3.69955ZM12.8742 7.05993C12.8742 6.92566 12.8208 6.7969 12.7259 6.70196C12.6309 6.60702 12.5022 6.55368 12.3679 6.55368H5.04922C4.91495 6.55368 4.78619 6.60702 4.69125 6.70196C4.59631 6.7969 4.54297 6.92566 4.54297 7.05993C4.54297 7.1942 4.59631 7.32296 4.69125 7.4179C4.78619 7.51284 4.91495 7.56618 5.04922 7.56618H12.3685C12.5026 7.56603 12.6313 7.51263 12.7261 7.4177C12.8209 7.32278 12.8742 7.1941 12.8742 7.05993ZM5.04922 9.40837C4.91495 9.40837 4.78619 9.4617 4.69125 9.55664C4.59631 9.65158 4.54297 9.78035 4.54297 9.91462C4.54297 10.0489 4.59631 10.1776 4.69125 10.2726C4.78619 10.3675 4.91495 10.4209 5.04922 10.4209H8.73584C8.87011 10.4209 8.99888 10.3675 9.09382 10.2726C9.18876 10.1776 9.24209 10.0489 9.24209 9.91462C9.24209 9.78035 9.18876 9.65158 9.09382 9.55664C8.99888 9.4617 8.87011 9.40837 8.73584 9.40837H5.04922Z" fill="white"/>
<path d="M6.36361 16.3687H3.23105C3.02347 16.3684 2.82449 16.2859 2.67771 16.1391C2.53093 15.9923 2.44834 15.7933 2.44805 15.5857V2.41424C2.44805 1.98224 2.79961 1.63124 3.23105 1.63124H14.1863C14.6177 1.63124 14.9693 1.98281 14.9693 2.41424V7.22081C14.9693 7.35507 15.0226 7.48384 15.1176 7.57878C15.2125 7.67372 15.3413 7.72706 15.4755 7.72706C15.6098 7.72706 15.7386 7.67372 15.8335 7.57878C15.9285 7.48384 15.9818 7.35507 15.9818 7.22081V2.41424C15.9814 1.93828 15.7921 1.48193 15.4556 1.14533C15.1191 0.808717 14.6628 0.61934 14.1869 0.618744H3.23105C2.75503 0.619339 2.29869 0.808699 1.96209 1.14529C1.6255 1.48188 1.43614 1.93823 1.43555 2.41424V15.5857C1.43614 16.0618 1.6255 16.5181 1.96209 16.8547C2.29869 17.1913 2.75503 17.3806 3.23105 17.3812H6.36361C6.49788 17.3812 6.62664 17.3279 6.72158 17.233C6.81652 17.138 6.86986 17.0093 6.86986 16.875C6.86986 16.7407 6.81652 16.612 6.72158 16.517C6.62664 16.4221 6.49788 16.3687 6.36361 16.3687Z" fill="white"/>
<path d="M16.0129 9.51411C15.6593 9.16107 15.18 8.96278 14.6803 8.96278C14.1807 8.96278 13.7014 9.16107 13.3478 9.51411L8.69309 14.1688C8.54618 14.3152 8.44864 14.5038 8.41409 14.7082L8.15984 16.2174C8.13344 16.3743 8.14491 16.5352 8.19332 16.6867C8.24172 16.8382 8.32565 16.976 8.43809 17.0885C8.55054 17.201 8.68826 17.285 8.83976 17.3335C8.99126 17.3819 9.15215 17.3935 9.30903 17.3672L10.8171 17.1124C11.023 17.0781 11.2103 16.9819 11.3577 16.8339L16.0123 12.1792C16.3653 11.8256 16.5636 11.3464 16.5637 10.8468C16.5638 10.3472 16.3657 9.86788 16.0129 9.51411ZM10.65 16.1139L9.15828 16.3856L9.40859 14.8843L12.7583 11.5346L13.9924 12.7687L10.65 16.1139ZM15.2968 11.4632L14.7079 12.0527L13.4738 10.8186L14.0633 10.2291C14.2332 10.0592 14.457 9.97424 14.6803 9.97424C14.8529 9.97413 15.0216 10.0252 15.1651 10.1211C15.3086 10.2169 15.4204 10.3531 15.4864 10.5126C15.5525 10.672 15.5697 10.8474 15.5359 11.0167C15.5022 11.1859 15.419 11.3413 15.2968 11.4632Z" fill="white"/>
</svg>
