<svg width="20" height="20" viewBox="0 0 20 20" fill="none" xmlns="http://www.w3.org/2000/svg">
<path d="M10.5416 1.8665C10.3906 1.73742 10.1985 1.66649 9.99992 1.6665H4.16659C3.94557 1.6665 3.73361 1.7543 3.57733 1.91058C3.42105 2.06686 3.33325 2.27882 3.33325 2.49984V17.4998C3.33325 17.7209 3.42105 17.9328 3.57733 18.0891C3.73361 18.2454 3.94557 18.3332 4.16659 18.3332H15.8333C16.0543 18.3332 16.2662 18.2454 16.4225 18.0891C16.5788 17.9328 16.6666 17.7209 16.6666 17.4998V7.49984C16.6666 7.37947 16.6405 7.26053 16.5902 7.1512C16.5398 7.04187 16.4664 6.94474 16.3749 6.8665L10.5416 1.8665ZM10.8333 4.30817L13.5833 6.6665H10.8333V4.30817ZM14.9999 16.6665H4.99992V3.33317H9.16659V7.49984C9.16659 7.72085 9.25438 7.93281 9.41066 8.08909C9.56694 8.24537 9.77891 8.33317 9.99992 8.33317H14.9999V16.6665Z" fill="#212121"/>
</svg>
